/* XPM */
static char * COBB_xpm[] = {
"64 128 6 1",
" 	c #616161",
".	c #6E6D6D",
"+	c #8A898A",
"@	c #A8AAAA",
"#	c #B7B7B9",
"$	c #505050",
" ....  . ..+++.   ..+++.  . . ..+@@++...  ... .@+@@@@@@@#@++.+. ",
"...   . .+++@@+..  ...  ..   .+@@#@@@++...  .. +@@@@@@+@##@+++ .",
".  . ..++@@@@@@+.. $. $.  .$++@####@++@++..$ .. +@+@@+@@##+++.+.",
"..  ..+@@+###@++++. $$ . $$++@##@@###@@@++. $ ...+++@@@##@+.+.+ ",
" . ..+@@####@+@++@+. $. $$+@##@@#@@@@#@+@+..$$  . +@@##@@++..++ ",
".. .+++##@@@@@++@+++ . $$+@#@##@@@@@+@++.++. $ . . .+@+++.++.+  ",
". $.+@####@@@@+@@@++. $ .@###@@@@@@+@@@+..++. $ ..   +++.++.+.. ",
".$.+@###@@@@@@@@@+++.$$ ++#@@@@@@@@@@+@@+..+. $$  $   .+++++....",
" $.+@@#@@@@@@@@++++. $ .+@@@@@+@@@@@@@+++.+... $$$  . .....  ...",
". ..@@@#@@+@@@@@+.+.$  +@@@@++@@@++@@++++++. .. $$$  ..   ...  .",
" . .+@++@@@+@@++++ .  .++@@++@@+++.++@++.+. $$ .   $    ..$$  . ",
"   ..++@@++.+..++ .  ..+@@+@+++++++.+++... $$ $ ..  .. . $$ .  .",
" $  ..++..++++.... $$ ..+@++.+++..++++++. $$   .++@@++. $  $ $$ ",
"  $ .....++.. ... $ $$ .++.. .+..+.+.+..    ..+@@#@#@@+.  . $ $$",
".  . .  .. ...  ...  .$ .++ ..+++.++..  $ ..+@@##@@@#+@+.  ... $",
"  .$  .   .. $$.  ...  ....++..+++.. ..$ .+@###@##@@@@@@+.$ . ..",
" $$  $ ..   $$  +++... $$  ...++.. $  $$.+###@@@@@@@@@@++..$ .. ",
"$$ .$     .$  +@@##@++. $$. .. . $$ .$  +@@#@@##@@@@@@+@++.$$  .",
" ..  $$  . .+@@#####@@+. $ ..   . .  $$.@@#@@##@@@@@@@++... $$$ ",
"..  ..$$..+@@####@@@#+@+  $  $ ... .$$.+@+@@@@@@+@@@+@@+.+ $ $  ",
"@@+.. $ .+@@##@@##@@@@+@+.  $   .  $.. +++@+@@@+@@@+@@+++.. $ .+",
"###@+. ..+@####@@@@@@@@@++.  $$$ .   ...+++@@+@@+@++@++.. . .+@#",
"@###@+. ..@@#@@@@@@+@@@@@+... $  $  . .+.+@@+++@@@@+++.... .+@#@",
"@@@@#@.. .+@##@@@+@++@+@@++. .  $$$    .++++.+@@++. .+. .  +@@@@",
"@@@@+@+.  +@@#@@@@++@+++@+...  $ $   .  ..+.++++..    ..  .+#@@@",
"@@+@@++.. .+@@#@+@@@@@..+.....  $  ..  ....+..+++..  . .  +@#@@@",
"++@@@+... ..++@@@+@@+..+.+.+. .  .  ...   ...+.+ . ....   +@@#@@",
"+@@@+++.   ..+.++@+@@++++.+.  .. ...++.. ....   . ..+..  $.@+@++",
"++.+++...   . +++++++++.++....  ..+@@@++...   .. .++@+ .$$ +@@@+",
"@++.++. ...  ..++++.+....+...  .+@@@####@+.. ...++@@+.. $  .+@@@",
"+@@++.   . ..  ..+++.+...... . +@@##@@#@##@+..  .+@+.. $ $  ..++",
".++..  .....  .. ..++... ...  +@@#@@@@@@@##@+  ...+.. $$  .  .. ",
". .. .  .+@@@++ .  ....   . $++@@@@@@@@@@@@@@+.  ...  .$$. ..  .",
" ......+@@###@@+..  . .. .$$ +@#@@+@@+@@+@++@+..  .     $$  ..  ",
".  . .+@###@@#@@+. .   $$$$ +@##@+@@++++@++.++     . . $ .$$$ ..",
"  .. +@##@@@@@@+@+  . $ $$. +@#@@+++@@+++...++.   $.. ..   ..  .",
"..  .#@#@@##@@@@@++ .. ..  ..+@++++@@+++++.++. . $  ... ..  ..  ",
". . +@#@@#@@@+@@+.+. +. .. $ .+@+.++++.+.+++...  $ .. $$ ..++.. ",
"   .@@#@@@@@+@++++..++++ $$    .++.++.  ++...   $$..$$$ ++@#@@+.",
"+ ..@@@@+@+@@@@+++ . ++.  $$  $  .++++. .. .  . $.   ..+@####@@+",
"++. +@+@@+++@++++..  .. .   $$  $ . ....    .. $ $ ..+@@##@@@#+@",
"@+.  +.+@@@++++.. . $$     .. .  $ . ....  ..  .$ .+@@##@@@@@@@@",
"@++. .++++++.+++..    $  $$ ....$$  ..    .. .  . +@@##@@+@@++@@",
"@++ ...+++..++...  $$.  $$ ..+++.$$  ..  .  . . ..@@#@@@+@@++@@#",
"+.+.  ...  . .  ..  $ .$ ..++@@+++.$   .    $  ..++@@@@@@@@@@##@",
"++...   ... ...  ..  $  .+@@####@@++. .....  $$. +@+@@@@@@##@@@+",
"+..  ..   ..  $$ $  . ..+@####@@@##@+.. .  $$$.  .+@@@+@###@@+++",
".+..     ..++..$$ $  . +@###@@@@@@@#@+..  $$$  .  .+@@@+@@++++.+",
"+.  .. ..+@@@++..  .. .+#@@##@@@@+@@@@+... . $. .. .++++++++.+..",
"+  . ..+@@@###@+..  . +@+@@@@@@@+@@@+@@+. ...  .. .+.++.++..+..+",
"... .+@@@######@+.    +@@#@@@@@@@@@@+++@.. ...   $ .+.++...+..++",
".  .+@####@@@@#@+ .  .++@@#@@@@@@@+@@++++ ..  . $ ... .++.+++++.",
"   +@###@@@@@#+@++..  .+++@@@+@@+@@+++.++  ...   ..  .   ..++.. ",
". .+@@@##@++@@@+++. .  ++@@@+@@+++++...+. ...   $   .... $  .   ",
" .+@#@@@@@@++++++.   . .++.+++++.++.+.+. ..  . $$$ . .    $$ . .",
" .+##@+@@++++.+.+  ...  .++..+++..++++++..      $ $ .  . $$.... ",
" .@#@+@@+++..+++ ...  ..  .++++..++..++.....$$  .    .. $ . .  $",
".+@#@@+++.  ++... .  .. $$ ..++++. .+...  .$$ ...++@@+  .  .  $ ",
".++@@@@+++.  . . $$ .. $$ $   .. .  ... . $  . +@@##@@@+.   $$$ ",
" .@+@@++ .... . $$ . .. .$  .. ..  ..  ...    +@##@@##@@++. .$ .",
". +++++..  ... $ .  $ ..     ...  .   ..  .. .+#@@@@@##@@++    .",
". .+++..  .   . .  $ .++.. $  . ..$$ $  .  ..+@@@@@@@@##@@++..  ",
" .  ..  .   .  ... .+++++.. $$ . $$ $  ..... +@+@@@@##@@@++++ . ",
".  . ..   ....  . .+++.+. .. $$ .. .  .  ...  ++@@@@@@@#@+@+.   ",
" ....  . ..+++.   ..+++.  . . ..+@@++...  ... .@+@@@@@@@#@++.+. ",
"...   . .+++@@+..  ...  ..   .+@@#@@@++...  .. +@@@@@@+@##@+++ .",
".  . ..++@@@@@@+.. $. $.  .$++@####@++@++..$ .. +@+@@+@@##+++.+.",
"..  ..+@@+###@++++. $$ . $$++@##@@###@@@++. $ ...+++@@@##@+.+.+ ",
" . ..+@@####@+@++@+. $. $$+@##@@#@@@@#@+@+..$$  . +@@##@@++..++ ",
".. .+++##@@@@@++@+++ . $$+@#@##@@@@@+@++.++. $ . . .+@+++.++.+  ",
". $.+@####@@@@+@@@++. $ .@###@@@@@@+@@@+..++. $ ..   +++.++.+.. ",
".$.+@###@@@@@@@@@+++.$$ ++#@@@@@@@@@@+@@+..+. $$  $   .+++++....",
" $.+@@#@@@@@@@@++++. $ .+@@@@@+@@@@@@@+++.+... $$$  . .....  ...",
". ..@@@#@@+@@@@@+.+.$  +@@@@++@@@++@@++++++. .. $$$  ..   ...  .",
" . .+@++@@@+@@++++ .  .++@@++@@+++.++@++.+. $$ .   $    ..$$  . ",
"   ..++@@++.+..++ .  ..+@@+@+++++++.+++... $$ $ ..  .. . $$ .  .",
" $  ..++..++++.... $$ ..+@++.+++..++++++. $$   .++@@++. $  $ $$ ",
"  $ .....++.. ... $ $$ .++.. .+..+.+.+..    ..+@@#@#@@+.  . $ $$",
".  . .  .. ...  ...  .$ .++ ..+++.++..  $ ..+@@##@@@#+@+.  ... $",
"  .$  .   .. $$.  ...  ....++..+++.. ..$ .+@###@##@@@@@@+.$ . ..",
" $$  $ ..   $$  +++... $$  ...++.. $  $$.+###@@@@@@@@@@++..$ .. ",
"$$ .$     .$  +@@##@++. $$. .. . $$ .$  +@@#@@##@@@@@@+@++.$$  .",
" ..  $$  . .+@@#####@@+. $ ..   . .  $$.@@#@@##@@@@@@@++... $$$ ",
"..  ..$$..+@@####@@@#+@+  $  $ ... .$$.+@+@@@@@@+@@@+@@+.+ $ $  ",
"@@+.. $ .+@@##@@##@@@@+@+.  $   .  $.. +++@+@@@+@@@+@@+++.. $ .+",
"###@+. ..+@####@@@@@@@@@++.  $$$ .   ...+++@@+@@+@++@++.. . .+@#",
"@###@+. ..@@#@@@@@@+@@@@@+... $  $  . .+.+@@+++@@@@+++.... .+@#@",
"@@@@#@.. .+@##@@@+@++@+@@++. .  $$$    .++++.+@@++. .+. .  +@@@@",
"@@@@+@+.  +@@#@@@@++@+++@+...  $ $   .  ..+.++++..    ..  .+#@@@",
"@@+@@++.. .+@@#@+@@@@@..+.....  $  ..  ....+..+++..  . .  +@#@@@",
"++@@@+... ..++@@@+@@+..+.+.+. .  .  ...   ...+.+ . ....   +@@#@@",
"+@@@+++.   ..+.++@+@@++++.+.  .. ...++.. ....   . ..+..  $.@+@++",
"++.+++...   . +++++++++.++....  ..+@@@++...   .. .++@+ .$$ +@@@+",
"@++.++. ...  ..++++.+....+...  .+@@@####@+.. ...++@@+.. $  .+@@@",
"+@@++.   . ..  ..+++.+...... . +@@##@@#@##@+..  .+@+.. $ $  ..++",
".++..  .....  .. ..++... ...  +@@#@@@@@@@##@+  ...+.. $$  .  .. ",
". .. .  .+@@@++ .  ....   . $++@@@@@@@@@@@@@@+.  ...  .$$. ..  .",
" ......+@@###@@+..  . .. .$$ +@#@@+@@+@@+@++@+..  .     $$  ..  ",
".  . .+@###@@#@@+. .   $$$$ +@##@+@@++++@++.++     . . $ .$$$ ..",
"  .. +@##@@@@@@+@+  . $ $$. +@#@@+++@@+++...++.   $.. ..   ..  .",
"..  .#@#@@##@@@@@++ .. ..  ..+@++++@@+++++.++. . $  ... ..  ..  ",
". . +@#@@#@@@+@@+.+. +. .. $ .+@+.++++.+.+++...  $ .. $$ ..++.. ",
"   .@@#@@@@@+@++++..++++ $$    .++.++.  ++...   $$..$$$ ++@#@@+.",
"+ ..@@@@+@+@@@@+++ . ++.  $$  $  .++++. .. .  . $.   ..+@####@@+",
"++. +@+@@+++@++++..  .. .   $$  $ . ....    .. $ $ ..+@@##@@@#+@",
"@+.  +.+@@@++++.. . $$     .. .  $ . ....  ..  .$ .+@@##@@@@@@@@",
"@++. .++++++.+++..    $  $$ ....$$  ..    .. .  . +@@##@@+@@++@@",
"@++ ...+++..++...  $$.  $$ ..+++.$$  ..  .  . . ..@@#@@@+@@++@@#",
"+.+.  ...  . .  ..  $ .$ ..++@@+++.$   .    $  ..++@@@@@@@@@@##@",
"++...   ... ...  ..  $  .+@@####@@++. .....  $$. +@+@@@@@@##@@@+",
"+..  ..   ..  $$ $  . ..+@####@@@##@+.. .  $$$.  .+@@@+@###@@+++",
".+..     ..++..$$ $  . +@###@@@@@@@#@+..  $$$  .  .+@@@+@@++++.+",
"+.  .. ..+@@@++..  .. .+#@@##@@@@+@@@@+... . $. .. .++++++++.+..",
"+  . ..+@@@###@+..  . +@+@@@@@@@+@@@+@@+. ...  .. .+.++.++..+..+",
"... .+@@@######@+.    +@@#@@@@@@@@@@+++@.. ...   $ .+.++...+..++",
".  .+@####@@@@#@+ .  .++@@#@@@@@@@+@@++++ ..  . $ ... .++.+++++.",
"   +@###@@@@@#+@++..  .+++@@@+@@+@@+++.++  ...   ..  .   ..++.. ",
". .+@@@##@++@@@+++. .  ++@@@+@@+++++...+. ...   $   .... $  .   ",
" .+@#@@@@@@++++++.   . .++.+++++.++.+.+. ..  . $$$ . .    $$ . .",
" .+##@+@@++++.+.+  ...  .++..+++..++++++..      $ $ .  . $$.... ",
" .@#@+@@+++..+++ ...  ..  .++++..++..++.....$$  .    .. $ . .  $",
".+@#@@+++.  ++... .  .. $$ ..++++. .+...  .$$ ...++@@+  .  .  $ ",
".++@@@@+++.  . . $$ .. $$ $   .. .  ... . $  . +@@##@@@+.   $$$ ",
" .@+@@++ .... . $$ . .. .$  .. ..  ..  ...    +@##@@##@@++. .$ .",
". +++++..  ... $ .  $ ..     ...  .   ..  .. .+#@@@@@##@@++    .",
". .+++..  .   . .  $ .++.. $  . ..$$ $  .  ..+@@@@@@@@##@@++..  ",
" .  ..  .   .  ... .+++++.. $$ . $$ $  ..... +@+@@@@##@@@++++ . ",
".  . ..   ....  . .+++.+. .. $$ .. .  .  ...  ++@@@@@@@#@+@+.   "};
