/* XPM */
static char * CRACKED_POLISHED_BS_xpm[] = {
"64 128 6 1",
" 	c #312C36",
".	c #3C3947",
"+	c #4E4B54",
"@	c #160F10",
"#	c #23161F",
"$	c #27221C",
"  .+++++++++++@..++.++.++..++.+..++++...++.++++..+++.+++.++.. #@",
"   ..+.++..++$@.+..++++...++++..+++.++....++++..+++.+..++. . $#@",
". . ..+++++..@$...++++..++..++++..++  ...+..+++...++.. .... .$$#",
" ...++..+.++$@$....++.++......+..++...  ..$$ .++.$$+$.. ..  $#$#",
".. ....... $@@. . ..+++..  .........   $$$$ $ +$$$$$ .  $$.  $$@",
"..  . .. .$@@$    ++.+.....  ... .. $ $$$$$$$$.  $..   .+.$. $$#",
" ..    ..   $@$  $$.$$... ..  .. $ $$ $$$$$$  $$   $.  ..+++. $#",
"      ..   .+$@@  $$@.. ..   $. . $$ $$$$$$ .$$  $$  .  ++.$$$$#",
"   . . .  .+++$@@@@@$ .   $$ $$$$$$$$$$$$ .$.  $$$  #.. ..$##$##",
" .. .  .. +++.+$$@@$$ $$ $$$$  $$$$ $$ $ $$#$ ..$    #.#. . $###",
"  ....  ...+.+$$$$$@ $ $$$    $$$$$$  ..$$.$#$   .  .##@#.    ##",
"..   ..  .+.$$$...$@$$  $  $$$$ $$$$$  $$$$$##$   ..+ @# . $  $#",
". .    . $$$$... ..$@$$ $$$$$   .$$  $ .++..$#$$$.++..$@@@#$ $$@",
"....    $@$$. .  .$$$@$$$$$ ....  $$  ..+.+  $##@@$$$$@@##$ $$#@",
".. . .$@@$@  $  ..  $@@$ $$$++....  .. ..++. $@$$$#@$@##$ $$#$#@",
"  .$$$#$$$    $ . .$ $@ . $++.+....     .+.  #$$.+$$@##$ $$#$###",
"$$$$##$$$$ $$$     $$ $@$.+.$ .. $.   . $$$  @$++..$$@$$$$$$$##@",
"$$###$$$  $$$$$$    $$$$ .$ $$..$$$.. $$$ . $@.+. . $$$## $$#$@@",
"$@$ $@   $$  ..$$  $#$ $.$ $$$ .$$##$$  .. $@$.  #. $$##  $$$$#@",
"@$   $$ $$$$. $ $ $###$ $#$$$ .  $$#@$$ $$@@$$ $$##.###$ $ $#$##",
"$ $  $$$## $  $$$$$#$##$##$ $...$$$$#@@$@@@$$$$$##### $$ #$$$##@",
"$$$ $$##$$$  $$$$$$$$#$$$#$$ $ . $$$$#@@@@$ $ $$$$####$$$$$###@@",
"#$$$$$$##$   $ $$$$##$$#$$#$$$$ $$$$$@@$$ @$$$   $$##$  $$$$$##@",
"##$$#$#$$$$$   $###$$$$##$##$$$$#$$#$@$$  $$   $$$ #$$#$#$###@@@",
"#$$###$$  $  $$#@#$#####$#$##$$$$###@$#$$$$$$ $$$ #$##$$$#$#@@@@",
"$$###$$#$  $$$#@$$$$##$$##$$####$$##@###$$$$$##$$$$#####$#$$#@#@",
"#$##$#$##$#$$##$#$$#$#$$$$$$$##$$##$$$$#$#$##$$$$$$$###$$$#$$#@@",
"##$$##$#$##$$$@#$$$$$$##$$#$#$###$$$##$$$$####$$$$$###$$##@##$#@",
"#$#$###$$#$$$$$@#$$$$$$#####@###$$$##$$##$$##$$#$########@#####@",
"##$###@##$##$$#@@##$$##$#@@@###$#$###@####$$###$$$#@@@##@@@####@",
"@#@@@@#####$##@@##$#$$####@@@@@####@@##@@############@@@@###@#@#",
"@@#@@@@#@@@@@@@@@#@#####@@@@@###@@@@@@@@#@##@@@@@@##@@@@@@#@####",
"+++.+++++..++$$@@#$$$$##$#####@#$$$$$$$$$  $@.++++++..++.++.++.+",
"+..++++.++..++$@#$$ $$$$##$$##@##$  $$$ $$  @@++.+++++.+++.++++.",
"..++....++++..+##$$$   $$$$$$#@@$ $$  $$  $$$@.++.+.+....+...++.",
"....++...++..+$@#$  $$$  $$$#$#@$$$        $$$@.+..+++.+....++..",
".  ..   +.++.$@#   $$$    $$$$@@$      $$$$##@...+..++++........",
"..  ..  $.+..@#$  $  $$$ $$$$##@$$  $$$$#$##@ ........+.  ......",
".     $..$$$.$@#$      $$$$##@@#$$ $$$##$#@$ ...+......  $   . .",
" $$ $$$$$..$$+@##$  $$$$   $##@#$$   $$##@$ ..++.... .++. $$  ..",
"  $$ $$$...  ++@#$$$ $$   $ $$#@$@$ $$#@#$#$++.++..   .++..$$$  ",
"$$$$ $$$ . .  +@@$ $$   $$ $$#@@$@##$#$$.++..+++..  . ++    $$$ ",
" $$$$$       ..+@#$$     $$$$#@### ##$. ..++++....  ..+..  . $  ",
"$ $$   ..  $$. .@@#$$$$    $$$#@#   . ...+++.++.+..  ... ..     ",
" .. ...  $$$  . #@#$$$  $ $$$$@@$  .......+...++. . $.$$$ ..$.  ",
". ....    $$$ $#$$@$$ $ $$$ $#@@$  . ...  . .++..$.$ $@$  . $$..",
"  ..  .. $$ $$## $@#$  $$  $$##@$$  .++....  ..$$$ $$@#  ..  $$$",
"    $    .. . # $$##$$$ $$$$$##@$# .+.++. .   $ $@@$@@$$ ... $@$",
"  . $  $$ .. #$  $$#@#$$@##$$$###$...++...  . $$ $@@## $ . @$@$ ",
".  $  $$   $$$    $$#@###@@@#$####..++.+....   $$ $@#$$ ..$$@@$.",
" $$$   $$$  $    $$$$$$#@$ $@##@#$++....  ...$ $$$@#$$#$ $$$@$..",
". $@$ $#$  $$$ $$ $#$  $  $$$#@@#$.++.... .  $ $$#@#$## $$$$@$$ ",
"$  $@#$$$$ $$$#$$  $#$  $$$#$#@#$  . .. ..  $$$$$@####$$.$#@$$ .",
" $$#@$$$ $$ $$$#$$$###$$$##$$#@@$ . .  .  $ $$$$#@##$$$$$#$@$$$$",
"$$$@@@$ $#$$ $$$##########$$$#@@   ...  .. $$$$$@@###$$$$$$###$$",
"$$$$@@#$$$$ $$$$$$##$###$$$$###@$   $ .$$$   $$##@#$$##$$$##$###",
"$$$$##@$#$$$$$$$$#$$$$#####$##@#$ $$ $$$$ $$$$#####$$$$###@####$",
"##$$$$@@$$$$##$$$$$#########$#@#$$$  $$#$$$ $$$$####$#####@@##$#",
"#$$$$##$$$$$$$###$$$$###########$$$$$  $##$$$$$######$#####@####",
"$$$$$$##$$$$$###$$$$##$#########$#$$  $#$###$$#$############@###",
"#$#$$$$##$####$$$$$#$$#$###########$$$$$$$$$####$###############",
"##$$$$####$####$$##$$#$##########@###$$###$$$###################",
"############################@###@@@@@###@@#####@#@@##@@@#@@@@@#@",
"@@@@@@@@######@#####@@@@@@@@@@###@@@@@@@#####@@@@@#@##@@@@@@@@@@",
"++++++++++++++++++++++++++++++++++++++++++++++++++++++++++++++++",
"  .+++++++++++@..++.++.++..++.+..++++...++.++++..+++.+++.++.. #@",
"   ..+.++..++$@.+..++++...++++..+++.++....++++..+++.+..++. . $#@",
". . ..+++++..@$...++++..++..++++..++  ...+..+++...++.. .... .$$#",
" ...++..+.++$@$....++.++......+..++...  ..$$ .++.$$+$.. ..  $#$#",
".. ....... $@@. . ..+++..  .........   $$$$ $ +$$$$$ .  $$.  $$@",
"..  . .. .$@@$    ++.+.....  ... .. $ $$$$$$$$.  $..   .+.$. $$#",
" ..    ..   $@$  $$.$$... ..  .. $ $$ $$$$$$  $$   $.  ..+++. $#",
"      ..   .+$@@  $$@.. ..   $. . $$ $$$$$$ .$$  $$  .  ++.$$$$#",
"   . . .  .+++$@@@@@$ .   $$ $$$$$$$$$$$$ .$.  $$$  #.. ..$##$##",
" .. .  .. +++.+$$@@$$ $$ $$$$  $$$$ $$ $ $$#$ ..$    #.#. . $###",
"  ....  ...+.+$$$$$@ $ $$$    $$$$$$  ..$$.$#$   .  .##@#.    ##",
"..   ..  .+.$$$...$@$$  $  $$$$ $$$$$  $$$$$##$   ..+ @# . $  $#",
". .    . $$$$... ..$@$$ $$$$$   .$$  $ .++..$#$$$.++..$@@@#$ $$@",
"....    $@$$. .  .$$$@$$$$$ ....  $$  ..+.+  $##@@$$$$@@##$ $$#@",
".. . .$@@$@  $  ..  $@@$ $$$++....  .. ..++. $@$$$#@$@##$ $$#$#@",
"  .$$$#$$$    $ . .$ $@ . $++.+....     .+.  #$$.+$$@##$ $$#$###",
"$$$$##$$$$ $$$     $$ $@$.+.$ .. $.   . $$$  @$++..$$@$$$$$$$##@",
"$$###$$$  $$$$$$    $$$$ .$ $$..$$$.. $$$ . $@.+. . $$$## $$#$@@",
"$@$ $@   $$  ..$$  $#$ $.$ $$$ .$$##$$  .. $@$.  #. $$##  $$$$#@",
"@$   $$ $$$$. $ $ $###$ $#$$$ .  $$#@$$ $$@@$$ $$##.###$ $ $#$##",
"$ $  $$$## $  $$$$$#$##$##$ $...$$$$#@@$@@@$$$$$##### $$ #$$$##@",
"$$$ $$##$$$  $$$$$$$$#$$$#$$ $ . $$$$#@@@@$ $ $$$$####$$$$$###@@",
"#$$$$$$##$   $ $$$$##$$#$$#$$$$ $$$$$@@$$ @$$$   $$##$  $$$$$##@",
"##$$#$#$$$$$   $###$$$$##$##$$$$#$$#$@$$  $$   $$$ #$$#$#$###@@@",
"#$$###$$  $  $$#@#$#####$#$##$$$$###@$#$$$$$$ $$$ #$##$$$#$#@@@@",
"$$###$$#$  $$$#@$$$$##$$##$$####$$##@###$$$$$##$$$$#####$#$$#@#@",
"#$##$#$##$#$$##$#$$#$#$$$$$$$##$$##$$$$#$#$##$$$$$$$###$$$#$$#@@",
"##$$##$#$##$$$@#$$$$$$##$$#$#$###$$$##$$$$####$$$$$###$$##@##$#@",
"#$#$###$$#$$$$$@#$$$$$$#####@###$$$##$$##$$##$$#$########@#####@",
"##$###@##$##$$#@@##$$##$#@@@###$#$###@####$$###$$$#@@@##@@@####@",
"@#@@@@#####$##@@##$#$$####@@@@@####@@##@@############@@@@###@#@#",
"@@#@@@@#@@@@@@@@@#@#####@@@@@###@@@@@@@@#@##@@@@@@##@@@@@@#@####",
"+++.+++++..++$$@@#$$$$##$#####@#$$$$$$$$$  $@.++++++..++.++.++.+",
"+..++++.++..++$@#$$ $$$$##$$##@##$  $$$ $$  @@++.+++++.+++.++++.",
"..++....++++..+##$$$   $$$$$$#@@$ $$  $$  $$$@.++.+.+....+...++.",
"....++...++..+$@#$  $$$  $$$#$#@$$$        $$$@.+..+++.+....++..",
".  ..   +.++.$@#   $$$    $$$$@@$      $$$$##@...+..++++........",
"..  ..  $.+..@#$  $  $$$ $$$$##@$$  $$$$#$##@ ........+.  ......",
".     $..$$$.$@#$      $$$$##@@#$$ $$$##$#@$ ...+......  $   . .",
" $$ $$$$$..$$+@##$  $$$$   $##@#$$   $$##@$ ..++.... .++. $$  ..",
"  $$ $$$...  ++@#$$$ $$   $ $$#@$@$ $$#@#$#$++.++..   .++..$$$  ",
"$$$$ $$$ . .  +@@$ $$   $$ $$#@@$@##$#$$.++..+++..  . ++    $$$ ",
" $$$$$       ..+@#$$     $$$$#@### ##$. ..++++....  ..+..  . $  ",
"$ $$   ..  $$. .@@#$$$$    $$$#@#   . ...+++.++.+..  ... ..     ",
" .. ...  $$$  . #@#$$$  $ $$$$@@$  .......+...++. . $.$$$ ..$.  ",
". ....    $$$ $#$$@$$ $ $$$ $#@@$  . ...  . .++..$.$ $@$  . $$..",
"  ..  .. $$ $$## $@#$  $$  $$##@$$  .++....  ..$$$ $$@#  ..  $$$",
"    $    .. . # $$##$$$ $$$$$##@$# .+.++. .   $ $@@$@@$$ ... $@$",
"  . $  $$ .. #$  $$#@#$$@##$$$###$...++...  . $$ $@@## $ . @$@$ ",
".  $  $$   $$$    $$#@###@@@#$####..++.+....   $$ $@#$$ ..$$@@$.",
" $$$   $$$  $    $$$$$$#@$ $@##@#$++....  ...$ $$$@#$$#$ $$$@$..",
". $@$ $#$  $$$ $$ $#$  $  $$$#@@#$.++.... .  $ $$#@#$## $$$$@$$ ",
"$  $@#$$$$ $$$#$$  $#$  $$$#$#@#$  . .. ..  $$$$$@####$$.$#@$$ .",
" $$#@$$$ $$ $$$#$$$###$$$##$$#@@$ . .  .  $ $$$$#@##$$$$$#$@$$$$",
"$$$@@@$ $#$$ $$$##########$$$#@@   ...  .. $$$$$@@###$$$$$$###$$",
"$$$$@@#$$$$ $$$$$$##$###$$$$###@$   $ .$$$   $$##@#$$##$$$##$###",
"$$$$##@$#$$$$$$$$#$$$$#####$##@#$ $$ $$$$ $$$$#####$$$$###@####$",
"##$$$$@@$$$$##$$$$$#########$#@#$$$  $$#$$$ $$$$####$#####@@##$#",
"#$$$$##$$$$$$$###$$$$###########$$$$$  $##$$$$$######$#####@####",
"$$$$$$##$$$$$###$$$$##$#########$#$$  $#$###$$#$############@###",
"#$#$$$$##$####$$$$$#$$#$###########$$$$$$$$$####$###############",
"##$$$$####$####$$##$$#$##########@###$$###$$$###################",
"############################@###@@@@@###@@#####@#@@##@@@#@@@@@#@"};
