/* XPM */
static char * CRACK_DEEPSLATE_xpm[] = {
"64 128 6 1",
" 	c #2D2D2D",
".	c #242424",
"+	c #383737",
"@	c #414141",
"#	c #585858",
"$	c #4B4C4F",
"     ....... .. .  ++   ........   +    .......  ...  + ... ....",
"+++ ++++ .. + .. .++ + +++ ++       +++++   ++++     + ++ ++  ..",
"@@@@@@++@@@@@++.. ##########$$$$########  ########$#####$#$@@+ .",
"@@@+++++++@@++  . ####$$$$$$$$$$$$$$$###$ $###$$$$##$$$$$$@@++ .",
"@@@@+++++@++ .+ ..##$###$$$$$$$$$$$$##$$#$ $$$$$$$$$$$$$$@$$@++ ",
"@+@+@++++++..   ..#$#$$$$$$$$$$$$$$$$$$$$$ $$$@$@$$$@$$@@$@@@++ ",
"@++@+++  +  .. ...##$$$$$$$$@@$$$$$$$$$@$$. $$$@@@$$$@@@@@@@+++ ",
"@+++++++  ++ .....##$$$$$$$$$@@@$$@$@@@$$. $@$$$@@@$$$@@@$@+@+  ",
"+++++++++++ ... ..##$$$@$$$@$$$$@@$$$@$$..$++@$@$$$+ @$$$@++ + .",
"@+++ +++++   . ...#$$$$$@@++@@@$$@@$@$@@.  @+++@@@+ . +$@+  ++ .",
"@@+ ++++  +     ..$$$$$$$$@++@$@@@@@@@$. $$ @@++++   .. +..$@ +.",
"@+  +++++ ... . ..#$$$$@$$$@@@@$$@+@@@  $+$$+@++@+@++ ...$$@++ .",
"+++  + ..  . .....##$@@$@@+@$$$$@+@++@ $@@++$++@@@@+   ... ++  .",
"+ + +++ ..  . ....#$$$@@@+@$@$@@@@++@..++@@+++@@@+@@@ ..$@. ++ .",
"+  +  +   ........#$@@$@+++@@@+++++++.@++ ++@@+++@++  .@@+ +  ..",
"+  + +   ..... ...$$$@@+++@@@+@+++@@@+.$ +  +@++@+   .@ +  .+ ..",
"      ..   .  ....$$@+++@@@++++++@+@@@.$@  +   ++++  ..  ..  ...",
" .  ...  ..  .....$@@@++++@@++++++++++ .$    ++   ++  .   ......",
"  ..   .  ........@@++++ ++  +   ++ +  .@  +++     ++ ...  .....",
"   .. ............@+++  . +++  .   +++ ..@  +  ..      .........",
"....................  ..     .....    . .@    ..  ... ..........",
".......................   ............  ... ........ ...........",
"##############$$####$$$###$#$$$@$@ .@@@@@@++@@@@.@@@@   +++  ...",
"##$##$$###$$$$$#$$$$$$$$#$$$$@$$@+..@@+++++@++@@ .@@++ ++  +  ..",
"#$##$$$$$$$$$$$$$$$$@$$$$$$@@$$@++. @++@   ++@@@@..@@+++++   ...",
"#$$$$$@$$$$$$$$$$@$$$@@+@$$$@@+.@+. @+@+++   ++@@ ..@@++    ....",
"#$$$$@$$$$$@@$$$$@@$$$@@++@++@@+.+ .@@@++++ +  ++@.@+  ++  . ...",
"#$$$$$$@@@@@$$$@$$@@$@@$@@@@++@.....@@+++  +++. ++ .+ + ++  ....",
"$$@@$$$$$@@$@$$$@@@@+@@@$$$@@@ .  ..@++++++   +.  ..@+++  . ....",
"#@@$$$$$@@$$$@@$$@@$@+++@$@++ . +  .@@  ++++      .@++   . .....",
"#$$@$$$@@+@+@+$@$$$@@@+@@@@@  +@++  +@+  +  .   . .+  +   ......",
"#$$$@$@@+@@@++++@$++@+@@++@++. +@ . @++++  .    ..+    .........",
"$@@@++$@@@++@++@@+@++++@@++@ .. + .. +    ...  . . ..    .......",
"#$@+  +@@++++@@@+@+++++++@++@ .  . .   .    ... ..  ..  . . . ..",
"$@+ +@+++@+@++++ +@@+++++++    .   .. . ..   .... ..  ......   .",
"$+@+@@@@@@@+@+  ++++@ + +     +.. ......   .. .........  .... ..",
"@@@@++@@++ ++++   ++ . +  +  .  . ..... .   .......... .   .....",
"@++ +@++  +++  . + ++ ...  .. .. .....   ................ ......",
"  .  +   ..   .  ..  ...  .... .................................",
" ...   ...  ......  ............................................",
"..@@@@@@@@++@@@@@+..############$$###### ########$##$@@$$$$$$$$@",
". @+@++  + @+@++++ .####$$##$$$$$$$$$$## ##$####$$$$$$@@$$$@$@@+",
" .@@+     ++++ ++ ..##$$$#$$$$$@@$$$##$+ @#$$$$@@@$@$$$$@@$$@+++",
" .@+  ++    +++ ....#$##$$$$@$$$@@$$$$$ $$@@$@@$$@@$$@@@@$@@+@+ ",
"  @+++ +++ . + . ...###$$$$@$@@$$$@@$@  ++@$$$@@@$$@@+@+@@@+ +  ",
". @+  + +   ..  ....#$$$@@@@@@$@$@+@@+ + ++@$$$$@@$$@$+ ++@@+   ",
". +++ ..  ++ .......$$$@$@@$@@+@@@@++ $  +@$@$$@@$+++  ++@++++ .",
". +  .+ +++++  .....$$$$$$$@@@@++@++@$$@  +++@+$@@@+  +@@+++  . ",
".  + + + +   +  ....#$@@$@@@++++   +$@@@$.   +@@@+@@@+@@++ +++ .",
"..    +++  .  . ....#@@$@++@@@+++   ++@@+$. +@+@+++@+++  +  +  .",
". . ++++ ++ .. .....$$@@@@++++@@++ +@@++ @..@+++  + ++  +    ...",
".. +++  ++ + .......$@@++@@++@@+ ++ ++++++  .+     +  ++   .  ..",
"..  + ...   ........@@+ ++  ++  . ++  +  + .... +++  ++ ..  ....",
"...  +  ............@+++   + ++  ..  .. . ...    + .     ..  ...",
".... ................   ..    ..   ...   . ..... ..  . .. ......",
"...................... .......... ...  ...........  ... ........",
"$$$$$$ ..  $$$$$@@$$$$$$$@+ ..@@@@@@  .. @@+  +  ...$$$$$$$$@ ..",
"$$$@@ . $$@$$$@@@++@@$$@@$@+ .@@@++ + . .@+    +  ..$$@@@$$@$  .",
"$$$$@  $@+@+++$@+@+++@$$@@++  @@+@+  .+ ++ ++ ......$$$@++@@ + .",
"$$@@@@  @@+@++++@@@@++ ++@++ .@@@+++ .@+  ++ +  ....$$@++@+++  .",
"$@@@+ +@@++  ++@@++   ++@@@+ .@+++    .@+++  ++  ...$@@@ +@@++ .",
"$@@@@@+++ +++  +++   ++@+@+   @@ ++   ...  +    ....$+  +@@++  .",
"+@++++   +++++    ++   +@+    @+    .. ...   .......+@+  +  +  .",
"@+++    ++++    ++++++  +     +    ..     ..  ......@++++      .",
"     ....... .. .  ++   ........   +    .......  ...  + ... ....",
"+++ ++++ .. + .. .++ + +++ ++       +++++   ++++     + ++ ++  ..",
"@@@@@@++@@@@@++.. ##########$$$$########  ########$#####$#$@@+ .",
"@@@+++++++@@++  . ####$$$$$$$$$$$$$$$###$ $###$$$$##$$$$$$@@++ .",
"@@@@+++++@++ .+ ..##$###$$$$$$$$$$$$##$$#$ $$$$$$$$$$$$$$@$$@++ ",
"@+@+@++++++..   ..#$#$$$$$$$$$$$$$$$$$$$$$ $$$@$@$$$@$$@@$@@@++ ",
"@++@+++  +  .. ...##$$$$$$$$@@$$$$$$$$$@$$. $$$@@@$$$@@@@@@@+++ ",
"@+++++++  ++ .....##$$$$$$$$$@@@$$@$@@@$$. $@$$$@@@$$$@@@$@+@+  ",
"+++++++++++ ... ..##$$$@$$$@$$$$@@$$$@$$..$++@$@$$$+ @$$$@++ + .",
"@+++ +++++   . ...#$$$$$@@++@@@$$@@$@$@@.  @+++@@@+ . +$@+  ++ .",
"@@+ ++++  +     ..$$$$$$$$@++@$@@@@@@@$. $$ @@++++   .. +..$@ +.",
"@+  +++++ ... . ..#$$$$@$$$@@@@$$@+@@@  $+$$+@++@+@++ ...$$@++ .",
"+++  + ..  . .....##$@@$@@+@$$$$@+@++@ $@@++$++@@@@+   ... ++  .",
"+ + +++ ..  . ....#$$$@@@+@$@$@@@@++@..++@@+++@@@+@@@ ..$@. ++ .",
"+  +  +   ........#$@@$@+++@@@+++++++.@++ ++@@+++@++  .@@+ +  ..",
"+  + +   ..... ...$$$@@+++@@@+@+++@@@+.$ +  +@++@+   .@ +  .+ ..",
"      ..   .  ....$$@+++@@@++++++@+@@@.$@  +   ++++  ..  ..  ...",
" .  ...  ..  .....$@@@++++@@++++++++++ .$    ++   ++  .   ......",
"  ..   .  ........@@++++ ++  +   ++ +  .@  +++     ++ ...  .....",
"   .. ............@+++  . +++  .   +++ ..@  +  ..      .........",
"....................  ..     .....    . .@    ..  ... ..........",
".......................   ............  ... ........ ...........",
"##############$$####$$$###$#$$$@$@ .@@@@@@++@@@@.@@@@   +++  ...",
"##$##$$###$$$$$#$$$$$$$$#$$$$@$$@+..@@+++++@++@@ .@@++ ++  +  ..",
"#$##$$$$$$$$$$$$$$$$@$$$$$$@@$$@++. @++@   ++@@@@..@@+++++   ...",
"#$$$$$@$$$$$$$$$$@$$$@@+@$$$@@+.@+. @+@+++   ++@@ ..@@++    ....",
"#$$$$@$$$$$@@$$$$@@$$$@@++@++@@+.+ .@@@++++ +  ++@.@+  ++  . ...",
"#$$$$$$@@@@@$$$@$$@@$@@$@@@@++@.....@@+++  +++. ++ .+ + ++  ....",
"$$@@$$$$$@@$@$$$@@@@+@@@$$$@@@ .  ..@++++++   +.  ..@+++  . ....",
"#@@$$$$$@@$$$@@$$@@$@+++@$@++ . +  .@@  ++++      .@++   . .....",
"#$$@$$$@@+@+@+$@$$$@@@+@@@@@  +@++  +@+  +  .   . .+  +   ......",
"#$$$@$@@+@@@++++@$++@+@@++@++. +@ . @++++  .    ..+    .........",
"$@@@++$@@@++@++@@+@++++@@++@ .. + .. +    ...  . . ..    .......",
"#$@+  +@@++++@@@+@+++++++@++@ .  . .   .    ... ..  ..  . . . ..",
"$@+ +@+++@+@++++ +@@+++++++    .   .. . ..   .... ..  ......   .",
"$+@+@@@@@@@+@+  ++++@ + +     +.. ......   .. .........  .... ..",
"@@@@++@@++ ++++   ++ . +  +  .  . ..... .   .......... .   .....",
"@++ +@++  +++  . + ++ ...  .. .. .....   ................ ......",
"  .  +   ..   .  ..  ...  .... .................................",
" ...   ...  ......  ............................................",
"..@@@@@@@@++@@@@@+..############$$###### ########$##$@@$$$$$$$$@",
". @+@++  + @+@++++ .####$$##$$$$$$$$$$## ##$####$$$$$$@@$$$@$@@+",
" .@@+     ++++ ++ ..##$$$#$$$$$@@$$$##$+ @#$$$$@@@$@$$$$@@$$@+++",
" .@+  ++    +++ ....#$##$$$$@$$$@@$$$$$ $$@@$@@$$@@$$@@@@$@@+@+ ",
"  @+++ +++ . + . ...###$$$$@$@@$$$@@$@  ++@$$$@@@$$@@+@+@@@+ +  ",
". @+  + +   ..  ....#$$$@@@@@@$@$@+@@+ + ++@$$$$@@$$@$+ ++@@+   ",
". +++ ..  ++ .......$$$@$@@$@@+@@@@++ $  +@$@$$@@$+++  ++@++++ .",
". +  .+ +++++  .....$$$$$$$@@@@++@++@$$@  +++@+$@@@+  +@@+++  . ",
".  + + + +   +  ....#$@@$@@@++++   +$@@@$.   +@@@+@@@+@@++ +++ .",
"..    +++  .  . ....#@@$@++@@@+++   ++@@+$. +@+@+++@+++  +  +  .",
". . ++++ ++ .. .....$$@@@@++++@@++ +@@++ @..@+++  + ++  +    ...",
".. +++  ++ + .......$@@++@@++@@+ ++ ++++++  .+     +  ++   .  ..",
"..  + ...   ........@@+ ++  ++  . ++  +  + .... +++  ++ ..  ....",
"...  +  ............@+++   + ++  ..  .. . ...    + .     ..  ...",
".... ................   ..    ..   ...   . ..... ..  . .. ......",
"...................... .......... ...  ...........  ... ........",
"$$$$$$ ..  $$$$$@@$$$$$$$@+ ..@@@@@@  .. @@+  +  ...$$$$$$$$@ ..",
"$$$@@ . $$@$$$@@@++@@$$@@$@+ .@@@++ + . .@+    +  ..$$@@@$$@$  .",
"$$$$@  $@+@+++$@+@+++@$$@@++  @@+@+  .+ ++ ++ ......$$$@++@@ + .",
"$$@@@@  @@+@++++@@@@++ ++@++ .@@@+++ .@+  ++ +  ....$$@++@+++  .",
"$@@@+ +@@++  ++@@++   ++@@@+ .@+++    .@+++  ++  ...$@@@ +@@++ .",
"$@@@@@+++ +++  +++   ++@+@+   @@ ++   ...  +    ....$+  +@@++  .",
"+@++++   +++++    ++   +@+    @+    .. ...   .......+@+  +  +  .",
"@+++    ++++    ++++++  +     +    ..     ..  ......@++++      ."};
