/* XPM */
static char * DEEP_DIAMOND_xpm[] = {
"64 128 12 1",
" 	c #646464",
".	c #797979",
"+	c #515151",
"@	c #3D3D43",
"#	c #2F2F37",
"$	c #314040",
"%	c #1ED0D6",
"&	c #77E7D1",
"*	c #D5FFF6",
"=	c #148F92",
"-	c #648A8C",
";	c #617977",
"  ...   ++    +++++@@@@##@##@@@@+          ++   ++ ++@@@++++ +  ",
" ..     +   ++++++++@@@@@##@@@@+            ++ +  ++++@@@++++   ",
".  . +++  +++@++++@@+@++@@@@@@++         +++ ++  ++@+@@@+++     ",
"..    ++++++++@@@++@@++@@@@#@+@++ ++  ..  ++++++++++@##@@@ ++++ ",
". +++++++++++@@#@@@@@@##@##@@@@@++  ... +++ +++++++@@@##@+++++  ",
" +++++@@++@####@@@@@#@@###@@@@@++  ... ++  +++++@@++@@@#++@@@@++",
"@@@+@##@@##@#@###@@@@##@@@@#@@@+@++   .  ++++@@@++@@###@@++@+@@+",
"@@+@#@@+++++++@###@@@@@@@@@@##@@+@@+    ++@@++#@+@$$$$##@@@+@@@@",
"@+++    ....  ++ +++++@@+@@####@@@++++++@##@@####$%&%%$@##@@@@++",
"++        ...    $$  +++@@@@@@####@@+++@@@#####@$&**&%%$@@@@++@+",
"    +++  ...    $*&$+ +++++@@@@#@@@#@@####@@++@$&**&%&=%#@@@@@@@",
"++ ++  ++ ..  +$*&%&+++++@@++@@$$$@@####@++++@++-&%%%===;###@@@@",
"@+++++++   .  $$%%==;+++++@@@@$%&%$$+++ +  ....  -=%%%==;@@+++@@",
"@@++@++    .   $;==%-@++@@@@@$&**&%&$  + .......  --==%=;@+ + +@",
"@@@@+++++  . ++++---++@@@@@#$&**&&&%%=-     ...     ---;+    +++",
"@@@#@+++   .+++++++++@@@@@##$%%&&%%==-      .. .       +++  ++++",
"@#####@  +  ++++++@@@@@###@@@;%=====-        .        ++@@++@@+@",
"###@@@##@@+ @+++@@@@@##@###@@@;%==--.        .          ++@@@#@+",
"@+@@+@@@+@@@++@@@++@@@@#@@@@#@@;-- .     +   .     ++  ++++@@@##",
"@@++++@+++++++++++++##@$$$@@##+++        ++ $$      ++  +++++++@",
"....    +++ ++++++@@@$$%%%$$@#@+++     + +$$%=$   ++  ++++ +++++",
"  ....     +++++@@$$$&&&%%==$@#+++   +++$$*&%%=.   ++++++   +++ ",
"+  ..... ++++  @$$&&***&&&&==$@@+ +   +$$***&&=%. +++@@+@@ + +  ",
" + ..   +++   $$&&&***&&&&%%==$@++++   +$&*&&%==;+++++@@+++++  +",
"+  .       +.%&&**&&&&&&%===%==$@+  ++++&%&&&%%=;@@@@@##@+++++++",
"   .        +;%&&%%&&&%%&%=====;++++@@@+%&&%%=%=-#@@###@@@@@++++",
"+  .     +++  ;;%%&&%%%%==%%==-@+@@@@++@.=%%===-@@###@@@@@++@+++",
"+  . +    @++++.--%&&%===%%=--@@@@+++++++;====-#@@@###@@@@@+++++",
"++ .  +++++@@@+@@..---;-----      + ++++++;---#@####@@#@@+  + ++",
"+++. +++++++##@+@@####@@  .   ..    +  +++++++@#@@###@@#@    +++",
"+++ ++@@@####@@@@##@@@@@+  .......  $ ++ ++++@@@@@@@##@@++  + ++",
"++@@+++$$$@#@@@@@@@@@@@@+@  ...   $$$$+   +++++@@@@#@@@@+@+  +++",
"++++@$$&**$$@#@@@@@@###@@++ ..   $$$&&$$    ++@+@@@@@@@@@+++++++",
"+++@$&***&&%$$##@@@###@#@++ .. $$$&***&%$$ ++++@@@@@@@@##@+@@+++",
"+@@@&%%&&%%&%%=;;##@@@+@+++ . $$&&***&&&%%$++@@@@#@#@@##@@@@++++",
"++@@;&%%&&%%%===;;@+++++++++.$&&**&&&&%%&&==@@##@@####@@@#@@@@++",
"@@++@;%=%%%====-@++++   ++++.&%%&%&&%%%&&%%===;###@##@@##@@@@@@#",
"#@@@@@;;=====--@+@++  ++++++.;&%%&&=&%&&%%===;+@#@@@####@#@@###@",
"@#@@@+++-----++@@++ ++++++++ .;;&%%%===%==-;;@@+@@###########@@@",
"@@@@@@@++@@@++@+++@++++@++@++ ++;-====%---@+@@+@@#########@@@@++",
"+++@@+@@@@++@@@@@@$$$@@+@@+++++@@@;----@#@@@@@@@##@##@#@+++    +",
"    +@@@++@++@#@@$&&%$+@@++@@@++@@@@@@@@@###@@@#@@#@++@+ ...  . ",
"  ++ .. +   ++@##**%&==+++@@@+@@@#@##@@###@@#@@@@@@@@@+++ ....  ",
"      ..   ++++@#&**%%== +++@@@@###@###@@@@@@@#$$$@+@+     ..   ",
"    ..    + ++@@@+&%==  +   .++++@@+@@##@@@@##$%==$$+++    .    ",
"       + +++++@@++    ..  ....   ++++@@@#+@@@$%&%%==$+ ++  .    ",
"     +++++@@++@+     . ...    .   +++++@@@+@$%&&&&%==$++   .    ",
" ++   ++@@@+++@+      ...         + ++@##$$%&&&&&%%%==$++  .    ",
"  ++++ ++@+@+@@+      ..           +$@$$&&&&&&&%%&%%===.+++     ",
"  ++ +++@#@+@@@++ +    .           $&&****&&&&&&%%%====.++   +  ",
" +  +++@#@@@@@@@++     .         +&*****&&%%%&&%%=====.++  ++   ",
"+++  +++@@@@@@#@@@++   .         %&&**&&&&&%%%%===;;;.+@ +++    ",
"@@+@+@@@@@#@@#$$$$@++++     ++   ;%&&&&%%%%%==--;;@@@@@+@+++@+@@",
"#@@+@##@@@@##$$%&&$+++     ++ ++  ;%%&&&%%===--++###@@#@@@+++@@#",
"@##@@@##@#@@$**&%%=@+ ++     +++@++;=%%=====--++@@@########@@@##",
"+++++@@@#@@$&&%%&%=#@+++++  ++@@++@@;;=%==--@@@@@@#@@@###@@@##@@",
"       ++ +.%&&%==-##@@##@###@@@@#####;;;-.. +++@@@@@###@#@@++  ",
".  ...   ++..%===-.+@#@@@######@@@@#@+  ...   ++++@@@@@##@+ + ..",
"... .       .----.@@+@@++@@@##@#@@+@. ..   +++  ++++@@@+ + +   .",
" ...    +     +.. +++++@++@#@#@@@+++ ..   +  ++++++@@@@@+     . ",
"  .      ++  ++++   +++++@@##@#@+@+   .       ++++@+@#++        ",
"   .      ++  ++++ ++++++++@#@#@@+ +   .     ++  ++ +#@++    +  ",
"  ..        +++++ ++++@+@+@@@##@@++    .        ++ + @#@+  +  ++",
"   ..      ++++++++++@#@@@+@@#@@++     .       ++   @@@++ +  ++ ",
"  ...   ++    +++++@@@@##@##@@@@+          ++   ++ ++@@@++++ +  ",
" ..     +   ++++++++@@@@@##@@@@+            ++ +  ++++@@@++++   ",
".  . +++  +++@++++@@+@++@@@@@@++         +++ ++  ++@+@@@+++     ",
"..    ++++++++@@@++@@++@@@@#@+@++ ++  ..  ++++++++++@##@@@ ++++ ",
". +++++++++++@@#@@@@@@##@##@@@@@++  ... +++ +++++++@@@##@+++++  ",
" +++++@@++@####@@@@@#@@###@@@@@++  ... ++  +++++@@++@@@#++@@@@++",
"@@@+@##@@##@#@###@@@@##@@@@#@@@+@++   .  ++++@@@++@@###@@++@+@@+",
"@@+@#@@+++++++@###@@@@@@@@@@##@@+@@+    ++@@++#@+@######@@@+@@@@",
"@+++    ....  ++ +++++@@+@@####@@@++++++@##@@#####@@@#@@##@@@@++",
"++        ...     +  +++@@@@@@####@@+++@@@#####@@@@@#@@@@@@@++@+",
"    +++  ...        + +++++@@@@#@@@#@@####@@++@@@@#######@@@@@@@",
"++ ++  ++ ..  +    ++++++@@++@@@##@@####@++++@++@@@@@#######@@@@",
"@+++++++   .   +++@@++++++@@@@###@@++++ +  ....  ++ ++@#@@@+++@@",
"@@++@++    .    +++@@@++@@@@@@@@++++   + .......     +++#@+ + +@",
"@@@@+++++  . +++++++++@@@@@##@+@@+   ..     ...         +    +++",
"@@@#@+++   .+++++++++@@@@@##@+@++    .      .. .       +++  ++++",
"@#####@  +  ++++++@@@@@###@@@@++ +  .        .        ++@@++@@+@",
"###@@@##@@+ @+++@@@@@##@###@@@++  + .        .          ++@@@#@+",
"@+@@+@@@+@@@++@@@++@@@@#@@@@#@@++  .     +   .     ++  ++++@@@##",
"@@++++@+++++++++++++##@@@@@@##+++        ++  .      ++  +++++++@",
"....    +++ ++++++@@@##@#@@@@#@+++     + ++   +   ++  ++++ +++++",
"  ....     +++++@@+@@@@#####@@#+++      ++++   +   ++++++   +++ ",
"+  ..... ++++  @@+++++@@##@@@@@@+ +   +++++++ +++ +++@@+@@ + +  ",
" + ..   +++   +++++++@+@#@@@++@@++++   ++@+++ ++++++++@@+++++  +",
"+  .       +++++++ +@@@#@@@@@@++@+  ++++++@@+++@+@@@@@##@+++++++",
"   .        +++++ +++@@#@@@@@+++++++@@@+@##@@@++@#@@###@@@@@++++",
"+  .     +++  +++@@+@@###@@+@@@@+@@@@++@@@@###@@@@###@@@@@++@+++",
"+  . +    @+++++++@@@##@@@++++@@@@++++++++@@####@@@###@@@@@+++++",
"++ .  +++++@@@+@@@@@#@@@@+ +      + ++++++++@@#@####@@#@@+  + ++",
"+++. +++++++##@+@@####@@  .   ..    +  +++++++@#@@###@@#@    +++",
"+++ ++@@@####@@@@##@@@@@+  .......    ++ ++++@@@@@@@##@@++  + ++",
"++@@++++@@@#@@@@@@@@@@@@+@  ...       +   +++++@@@@#@@@@+@+  +++",
"++++@@+++@@+@#@@@@@@###@@++ ..     +++ +    ++@+@@@@@@@@@+++++++",
"+++@@+@+@++@@@##@@@###@#@++ ..    +  ++++  ++++@@@@@@@@##@+@@+++",
"+@@@@@@@++@@##@@@##@@@+@+++ .       ++++  +++@@@@#@#@@##@@@@++++",
"++@@@@@@@@#####@@@@+++++++++.    +++++  ++++@@##@@####@@@#@@@@++",
"@@++@@@@#####@@@@++++   ++++.  +++++++++++++++@###@##@@##@@@@@@#",
"#@@@@@@##@@###@@+@++  ++++++.   ++@@++++++@@+++@#@@@####@#@@###@",
"@#@@@@#@@@@@@##@@++ ++++++++ . ++@@++++@@@+++@@+@@###########@@@",
"@@@@@@@@@@@@@@@#++@++++@++@++ ++@+++++@+@@@+@@+@@#########@@@@++",
"+++@@+@@@@++@@@@@@+++@@+@@+++++@@@@+@@@@#@@@@@@@##@##@#@+++    +",
"    +@@@++@++@#@@++++++@@++@@@++@@@@@@@@@###@@@#@@#@++@+ ...  . ",
"  ++ .. +   ++@##@@@++++++@@@+@@@#@##@@###@@#@@@@@@@@@+++ ....  ",
"      ..   ++++@###@@@++ +++@@@@###@###@@@@@@@#@@@@+@+     ..   ",
"    ..    + ++@@@++ ..  +   .++++@@+@@##@@@@##@#++@@+++    .    ",
"       + +++++@@++    ..  ....   ++++@@@#+@@@##@@+++++ ++  .    ",
"     +++++@@++@+     . ...    .   +++++@@@+@@@#@@@+@++++   .    ",
" ++   ++@@@+++@+      ...         + ++@##@++@#@@#@@++++++  .    ",
"  ++++ ++@+@+@@+      ..           + @+@##@+@@####@@@++++++     ",
"  ++ +++@#@+@@@++ +    .            ++++@#+@@@@#####@@++++   +  ",
" +  +++@#@@@@@@@++     .           ++++@@#@#@@#@#@@@+++++  ++   ",
"+++  +++@@@@@@#@@@++   .         +  ++@@#@@#@@@@@@@+@++@ +++    ",
"@@+@+@@@@@#@@###@+@++++     ++    ++++++@@#@@@@@##@@@@@+@+++@+@@",
"#@@+@##@@@@####@@@++++     ++ ++   ++@@@@##@@@@@@###@@#@@@+++@@#",
"@##@@@##@#@@@@###@@@+ ++     +++@+++@+@@####@@@@@@@########@@@##",
"+++++@@@#@@@##@#####@+++++  ++@@++@@#@#@@@#@##@@@@#@@@###@@@##@@",
"       ++ ++@++  +@##@@##@###@@@@#####@+  .. +++@@@@@###@#@@++  ",
".  ...   ++ ++  + ++@#@@@######@@@@#@+  ...   ++++@@@@@##@+ + ..",
"... .            +@@+@@++@@@##@#@@+@. ..   +++  ++++@@@+ + +   .",
" ...    +     +   +++++@++@#@#@@@+++ ..   +  ++++++@@@@@+     . ",
"  .      ++  ++++   +++++@@##@#@+@+   .       ++++@+@#++        ",
"   .      ++  ++++ ++++++++@#@#@@+ +   .     ++  ++ +#@++    +  ",
"  ..        +++++ ++++@+@+@@@##@@++    .        ++ + @#@+  +  ++",
"   ..      ++++++++++@#@@@+@@#@@++     .       ++   @@@++ +  ++ "};
