/* XPM */
static char * OAK_DOOR_xpm[] = {
"64 128 20 1",
" 	c None",
".	c #5A422C",
"+	c #493116",
"@	c #3D2812",
"#	c #53361A",
"$	c #412B13",
"%	c #32210F",
"&	c #291A0C",
"*	c #4F3214",
"=	c #624224",
"-	c #6F6F6F",
";	c #515151",
">	c #724A24",
",	c #454545",
"'	c #323232",
")	c #A77800",
"!	c #FFE600",
"~	c #CD9600",
"{	c #62401E",
"]	c #73491E",
"...............................................................+",
"..............................................................+@",
"..##+###++#$+++#######++++++#####+++++##++++++###+##++++++###+@%",
"..###++++$$####+++##++##+$$$+++#####+++###++$$$$$##$$###+++#+#%%",
"..#+++##+++$$+++++$$$+++########++$$$##++$$+++++$$$++$++$$$+++%@",
"..+$+++#####$$$+####$$$+##+++++$$$$+##++++$$$$++++###+++++##$$%@",
"..#+$$$+++$$##++++++#+$$++$+$$$+####+++###++++$$+$+#$$$+##$+++@@",
"..+##+#$$$$+++$$$$++++++$$$$++++++$$####+++##+++$+++++$$+++$$+@%",
"..+#++##+$$$$$++++$+++$$$+++$###++++$$++###++$$$$$$$$+++$$$$+#%@",
"..##$++#++$$++++$$$$$+++++###+$++$$#+$$$++++++++$$+++$$$$+++#+%@",
"..#+$++#$$&&&&%%%&&&%%%&&&%@##+$$++#&&&&%%%&&&%%%&&&%@+###+##+%%",
"..##+$#+$$&%%%%&&&%%%%%%%%@*#+#$+++#&%%%%&&&%%%%%%%%@*++#+#+++@%",
"..#+#$#+$+&%@@@@@@@@@@@@@@*=#$++++##&%@@@@@@@@@@@@@@*=+#+$+#++@%",
"..++##++$+&%@@@@@@@@@@@@@@==+$++++#+&%@@@@@@@@@@@@@@==#++$$#++@%",
"..+#+#+$++&&@@@@@@@@$@@@@@==$$++#+#+&&@@@@@@@@@@@@@@==##++$+$+@@",
"..+#+#+$++&&@@@$@@@@$@@@$@==$+$+##++&&@@@@@@@$@@@@@@==+#++$+$$@%",
"---;+$+$#+&&@@@@@$@$@@@$@@=>$+$++#+#&&@@@@$@$@@@@@@@=>+##$+++$@%",
"-;;,+$$$##%&@@@$@$@@@@@$@@=>++$+$#+#%&@@@@$$$@@@@@$@=>+##++$+$%%",
"-,;,$+$++#&&@@@$$$@@$@$@@@=>++$$+#+#&&@@@@@$$@@$@@$@=>#+#++$++%@",
"-;,,++$++#&&@@@@$$$@$@$@@$==+$+$+###&&@@@@@@$@$$@$@@==#+##+$$+%@",
"-;,'#+++#+&%@$@@$$$@$@$$@$==+$#$++#+&%@@@$@@$@$$$$$@==+$##+#$+@%",
";,,'#++$#+&%@@$@$$$$$@$$@$=>++#$$+++&%@@@$$@$$$$$$@$=>+$##$+$+@@",
";,',#++$#+&%@@$$$$$$$$@$@$==++#$#++#&%@@@@$$$$$@$$@$==$+#+$++$@%",
",'''+#++#+%&@@$$+$$$@$$$$$==++++#++#%&@@$@$$$$$@$$$$==++$+#$+$@%",
"..+###+###%&@$@$$+$$@@$$$$==+$+##+#+%&$@$$@$+$@@$$$$==##$$#$$$@%",
"..+#$#+#+#%&@$@$$$$$$@$$$$=>+$++###+%&$@$$@$+$@$$$$$=>##+$##$+@@",
"..+#$$+#++%&$$@@$+$$@$$$+$=>$$+++#++%&$$$$$+$$$$+$$+=>#++$+#$#%@",
"..#++$+++$&&$$$@$+$$@$$+$$=>$$+++#++&&$$$+$+$$$$+$$+=>+#+$+#+#%%",
"..##+#+#$+&%$$@$+++$$$$+$$=>$+++++++&%$@$+$++$$+$$$+=>+##+####@%",
"..##++##++&%$$@$++$+$+$+$$=>$+$++++$&%$@$$++$+$++$+$=>+##+#+#+@%",
"..#+#+#+#+&%$+$$++$+$++++$==++$++$+$&%$$@$++$#++$$++==###+#+$+@%",
"..#+#+#+#+%%$+$$+$++$$+++$==#+$++$+$%%$+$$+$++++$+++==#+##++$+@@",
"..+$##++##%%++$++++$+$++$$=>#++$+$$$%%$++$+$+++$++++=>#+##+#$+%@",
"..+$#+$+##%&+++$+#+$++$+$+=>#++$$+$+%&+$+++$+++$++++=>#++#+#+$%@",
"..+$#$#+##&&+++++#+$+++++$=>+#+$++$+&&++$+++#++$++++=>+$+##+#$@%",
"..$++$#+##&%+++$+#$++++++$=>##$$+#$+&%++$+++++++++++=>+$+##+#+%%",
"..$$+$##+#&&+++$++++++#++$=>#+$++#$+&&++++++#+++++++=>#$##++##%@",
"..$$$#+#+#&&#++$+++++++++$=>++$+##++&&++++++#+++++#+=>#++#+++#@%",
"..+$#++#++&&+++++#+++#++++=>$+$+#+#+&&+++++++++++#++=>#+$+#+$#@%",
"..++#++#++&&#++$+++++#++++=>$$++#+++&&+#+++++++++#++=>##$$#+$+@@",
"..$#++##+#&%+#++$+++#+++++=>+$+##+++&%++#+++++++++#+=>##$$+++$%@",
"..+#++##+#&%+#++$+++#+++++=>+$+#+#++&%++#++#+++++#++=>#++$+#+$%@",
"..+#++#+++%&+#++++++#++#++==#+$#+#++%&++##+#+++#+#+#==#++$++++%%",
"..+#++#+++&%+#+++#++##+#++==#+$+##++&%++#+++#++#+#+#==+#++$+$+@%",
"..##+++++#&&++++++#+####+#=>#+$+#+++&&++++++#+++##+#=>+$++$+$+@%",
"..##+#+++#&&++++++#+####+#=>#++##++#&&++++++##++####=>+$+$+$$+@%",
"..#++#++##&&++#+++#+###+##=>+#+#++#+&&+#+++++#+#+###=>#++$$$+#@@",
"..#+++++#+&&++#++++####+##=>+##+++#+&&+#++++#+##+###=>#+$$+$+#%@",
"..#+#+$+#+&%+#++++####++##=>++#++##+&%++#+++#+######=>+#+$++##%@",
"..#+#+$$+#&%+##+++####+###==$+#++#++&%++##+++#######==+#+$$+#+@@",
"..##+#+$+#%%+###+#########=>$+$#+#$+%%++#++#+#######=>+##+$#++@@",
"..##+$+$++&%####+#########=>+$$#++$+&%#+#+++########=>+##+++++@%",
"..+#+$++$+&%###+##+#######=>+$+++++$&%#+##+#+#######=>$+##+#++@%",
"..+#+$++$+&&######+#######=>+$$++$+$&&##+#+#+#######=>+$+#+#+#@%",
"..+++$$+$$%&######++######=>$+$+$+$$%&###+###+######=>+$+#+##+%%",
"..+#$+$+$+%&#######+######=>+#+$$+$+%&##############=>$$+#$+#+%%",
"..+#$#+$++%%##############=>##+$#+++%%##############=>$+##$++$%@",
"..++$#+$#+&%##############=>+#+++#++&%##############=>$+###+$$@@",
"..+$##$$#+&@================++#+##++&@================+#++#$$$@%",
"..+$#+$+++@===>==>>>>===>>==++#+++##@===>==>>>>===>>==+#))++$+@%",
"---;+#$+###$$$##++$$$++###+###+++$$#####++####++!!!!~~~~~~)+$$%%",
"-;;,+#$$++###++###++$$$+###++$$$$#$$$+++$$+++#!!~~~))~))~~~)+$%@",
"-,;,+$$+$$#++++$$$#++$##+###$$+#+++++$$###$++!~))~~~)))~)~~)+$%@",
"-;,'+#####+++$$+#####++##++$$$+###+++++$$$++~)))++$$++++))~)+#%%",
";,,'+++$$##+++$$$$++##+++$$++##++++$$$$+++$$$~)++##+$$$++))++#%%",
";,',$$$$++#######+$$++##++###+++##$$++$$$##++$+##$$$$#+#++++##@%",
",'''#+$+##+++##++########++###+#++######+$$+$$$$$++$+++#++++#+@%",
"..+$#++$++&&&&%%%&&&%%%&&&%@+##++##+&&&&%%%&&&%%%&&&%@###+#+#+@@",
"..#$+#+$+$&%%%%&&&%%%%%%%%@*++$+##+$&%%%%&&&%%%%%%%%@*#+#+##+#@@",
"..#$$#+$$#&%@@@@@@@@@@@@@@*{++$$#+++&%@@@@@@@@@@@@@@*{#++#+#+#@@",
"..#+$##+$#&%@@@@@@@@@@@@@@{{+#+$#++$&%@@@@@@@@$@@@@@{{+++#+#+#@%",
"..+#$+#$#+&&@@@@$@@@@@@@@@{{+#+$##+$&&@@@@@@@@@$@@@@{{#+##+###%%",
"..+#+$+$#+&&@@@@@$@@@@@@@@{{$#+++#+$&&@@@@@@$@@$$@@@{{#+##++#+@%",
"..##+$$$+#&&@@$@@$@@@@@@@@{]$+#+$+#$&&@@@@@@@$@@$@@@{]#+##+#++@@",
"..#+$+$++#%&@@$@@$@@@@$@@@{]$+#+$+#+%&@@@@@@@$@@$@@@{]##+#+#+#%%",
"..#+$#+$##&&@@@$@@$@@@@$@@{]$$#++$++&&@@@@@@$$@@@@@${]##+#+#+#@%",
"..#+$#+$#+&&@@@$$@$@@@@$@@{{+$+#+$+#&&@@@@$@$$@@@@@${{##+##++#@@",
"..#$+##$#+&%@@@$$@$@@@$@@@{{$++#+$+#&%@$@@$$@$$@@@$@{{#+$+#+$#@@",
"..#$++#$+$&%@@@$$$$$@@$@@@{]$$##$$+#&%@@$@$$@$$$@@$@{]#+$##+$+@%",
"..#$+##$+$&%@@$$+$$$@@$$@@{{+$#+$+#+&%@@$$@$$@$$@$$@{{++$#+#$+@%",
"..#+#+##$$%&@@$$+$$$@@$$@@{{+$#++##+%&@@$$@@$$$+$$$@{{+$+#+#$$@@",
"..#+#++#$+%&@@@$+$$$$@$$$@{{+#$#+#++%&@@$$$@$$$$+$$${{+$##+++$@@",
"..++#++#$+%&@@$$$+$$$@$$$@{]##$+##++%&$@$$$@$$$$+$$${]#$#+$+$+@%",
"..+#+$+#$+%&@@$$$++$$$$$@${]#$+##$#+%&$@$$$$$$$$$+$${]#+#+$+$+%@",
"..+##$+#++&&$@$$$+++$$$$@${]+$+#+$#+&&$@$$$$$$$+$+$${]#+#++$$#%%",
"..#+#$$+#+&%$@$$$$+$$$$@$${]+$$#$+#+&%$$$$$$$$$$++$${]##+++$+#@%",
"..#+##$+#+&%$@$$$$+$$$$$$${]+#$+$+++&%$$$$$$$$+$+$$${]+#++$++#@%",
"..#++#$+##&%$$$$$+$$$$$$+${{+#+$$#++&%$$$+$$$+$$+$$${{++#+$+#+@@",
"..+$+##$+#%%$$$$$+$+$$$$+${{+#+$+#++%%$$$$+$++$$+$$+{{+$#+$$#+@%",
"..+$+#+$+#%%$$$$++++$$$+$${]##$$++#+%%$$$$+$++$+$$$+{]+$#++$#+@@",
"..++$#+$+#%&+$$$+++++$$+$${]#++$++#+%&$$$$++$+$+$$+${]#$+$+$#+@@",
"..++$+$+#+&&+$+$+++++$++$${]#+++$+##&&$$+$++$++++$+${]#+$$#++#@%",
"..++$+$+#+&%+$++$+++++++$+{]+++$$++#&%$$+$+++$+++$+${]+#+$#+##@%",
"..$+$+$++#&&++$++++++$++++{]+#+$++#+&&+$+++++$++$+++{]+#++#++#@%",
"..$++$$#+#&&++$++++++$+++${]+#+$+$#+&&+$$+++++++++++{]+#++$#+#@%",
"..+$+$+#+#&&++$+++++$+++$${]+#+$#$++&&++$++#++++++++{]+#+#$##+@@",
"..+$+++##+&&++$+++++$++++${]++#+#+$+&&++$++#+++++++#{]#++#+#++@@",
"..+$$++$#+&%++++++++++++++{]+##+##$$&%+++$++#+++++#+{]##+#+#+$%@",
"..$+$#+$+#&%++++++++++++++{]+#+###$$&%++++++#+++++#+{]#++$+++$@%",
"..$++#+$$#%&+++++++++#++++{{#++#+#$+%&++#+++#++++#++{{#++$#$+$@%",
"..$++#++$#&%+++++++++#++++{{#+##++$+&%++#++##++++#++{{#+$##+$$@%",
"..$$++#+++&&++++++++++#+++{]+$##+#+$&&+++#+#++#++##+{]++$#+#$+@@",
".{+$++#+$+&&++++++++++#+++{]+$#+##+$&&+++#+#+++#+##+{]+$$++$++@%",
"---;$+##$+&&++++#+++#+#+++{]$$#+#+$$&&+++#++#++#+##+{]+$+#$$++@%",
"-;;,+++#$+&&++++#+++#+#+++{]$+#+#+$+&&+#+#++##+#####{]+++#$++$%@",
"-,;,$+#$++&%+++++#++###+++{]$##+++$+&%+#++###+##+###{]#++#+#+$@@",
"-;,,$+#$$+&%+++++#+#+##+++{{+###+#+$&%+#++###+##+###{{#++#+#+$@@",
"-;,'+$+$+$%%#+#++#+#+###++{]#+##+#+#%%+##+##+###++##{]#$++#+$$@%",
";,,'+$$$+$&%#++#+##++###++{]#$###+$#&%++#########+##{]+$++#+$+@%",
";,',++$+$+&%#++#####+####+{]#+$#++$#&%#+#########+##{]+$+##++$%%",
",'''++$+$$&&##+#####+####+{]++$#+$+#&&###########+##{]++$#++++%@",
".{$+#$++#$%&#########+###+{]++$#+$+#%&##############{]#+$$+++#@@",
".{$+#$++#+%&#########+####{]+$+#$$+#%&##############{]#$$$#+$#@@",
".{+$#++##$%%##############{]+$+#$+#+%%##############{]#+$++#$#%@",
"..+$+#+#+$&%##############{]$$+#$+#+&%##############{]#+$#+#+#%%",
".{+$+#+#+$&@{{{{{{{{{{{{{{{{$++#+##+&@{{{{{{{{{{{{{{{{+$+#+##+@%",
".{$++##+$$@{{{]{{]]]]{{{]]{{$++#+#++@{{{]{{]]]]{{{]]{{+$++##++@%",
".{$$++#+$+######++++###+++$$+++++#$$$+###++####++$$++###++#+#+@@",
".{+$+###+##++#####+##++#+++$$$+$$++++$$++###+######$$+++##++#+@@",
"..##++###++$$$++#+++++++$$$+++$$###+#+$$$+++#+++++###$$######+@%",
".{+##+#+++$$+###+++++#+$++++$$$+++##++++++##+++#$$$+$$###+++##%@",
".{+++######+++++++$$++#####++######++###+++++##+++$$####+##++#%%",
".{###++++#####++$$$+####++++#+++#####+$$$$++##++++###++++++++#@%",
"{{++++###++++$$+++###+++##++++#####+$$+$$+$$++####+++++++$$+++@%",
"{{+####+$$+$$++###+++$$$$+$+$$++++####++$$$++++++###$++$$$+$++@%",
"{#@@@@@@@%%%@@@@@%%@@%%@@@@@@%@%%%@@@@@@@@@@%%%%@@@@@@@%%%@@%@@@",
"#@@@@@%%%%@%%%@@%%@%%%%%%%@@%@%%%%%%%%%%%@@%@%%%%%%%%%%%%%%%@@%%",
"                                                                "};
