/* XPM */
static char * MOSS_COBB_xpm[] = {
"64 128 21 1",
" 	c None",
".	c #5A6D41",
"+	c #525D39",
"@	c #6E6D6D",
"#	c #616161",
"$	c #888788",
"%	c #627941",
"&	c #738552",
"*	c #A6A6A6",
"=	c #B5B5B5",
"-	c #7A8F55",
";	c #525252",
">	c #515D35",
",	c #5A6E3E",
"'	c #898889",
")	c #627A3E",
"!	c #748650",
"~	c #A7A8A8",
"{	c #B6B6B7",
"]	c #7B9153",
"^	c #515151",
".++..++@#@@$$$@#+++.%%..%&%%.++.%%&&%...++..@#@*$*******=*$$@$&&",
"%..+..++@$$$**$@@+.%%.%..%&.++.%%&&-&&%..+++@@#$******$*==*$$&&%",
"&%...+@$$******$@&+.%.+.%.++.%&&&----&&&%%.+.@@#$*$**$**==$$$&%&",
"&%.%++-**$===*$$$$++++...++...%&---&&-&%%&&.+.@@@$$$***==*$@$@%%",
"%&%.+.%--===*$*$$*$++..++..%%%..&---&%&%&&@@+.+#@#$**==**$$@@$$%",
".%.+.%--=*****$$*$$$++++++..&..%&&----%&.%$@#++.#@#@$*$$$@$$@$#+",
"..+..-====****$***$$@+++..%&&--&-----&&%.@$$@#++.@###$$$@$$@$@@#",
"+.+.*===*********$$+..+...&-&&--&--&&%%.$@@$@#.++.;###@$$$$$@@@@",
"#++$**=********$$$$@+..%.&-&&%-&--&-%...$@$@@@.%.+.#@#@@@@@##@@@",
"@+@@***=**$*****$@$@;++.%%&&%%&&-&$&%.$.$$$@#@%...++#@@###@@@##@",
"#@#@$*$$***$**$$$$#@##++.&%&&%%&&&@$..$$@$@#..&%%..++.##@@;;##@#",
"###@@$$**$$@$@@$$#@##.+.%&%%&%.%&$$@.$$@@@#.+.%&%%..+++.#;;#@##@",
"#;##@@$$@@$$$$@@@@#;.+..$*%&%..&%@$$$$$$@#.+...&&%%%..++...;#;;#",
"##;#@@@@@$$@@#@@@%.++..@$$@&%..%&$@$@$@@##++.%.%&&&%%+...+.....;",
"+##@#@##@@#@@@##.++.#@;#@$$#....$@$$@@##;#.+.%%.-&-&&%%.+++....+",
"+.++##@###@@#;&%++.@@##@@@@$.%..$$@@#@@;#@$...%.--&&%%%%..++%%..",
".++##;#@@##+++%&&$$@@@#;;##@%%.%@@#;##;;@$=%..&%%---&&%%%%%..%%.",
"++#@;###.++++%&**==*$$@#;;@#@%%.#;;#@;##$**&%.&%%&---&&%%%.%....",
"#@@##;;.+.%&&**=====**$@#;#@@.%#@#@##;;@**=*&.&&%%-&&%%&.%%%%..#",
"@@##@@.+.&&&--===***=$*$##;##..@@@#@;;@$*$**&%&*&%&&%%%%...%.;##",
"**$@@#.+&&-----*==****$*$@##;#.#@##;@@#$$$*$&&*$&&*%&%%.%.+.;#@$",
"===*$.++%--&&-&-********$$@##;;;#@###@@@$$$**&**&*$$&&%@%.++@$*=",
"*===*.++.%&-&&%%&**$*****$@@@#;##;##@#@$@$**$&$&***$%%@@.++@$*=*",
"****=*++.%%%&&&&%$*$$*$**$$@#@##;;;####@$$$$@$**$$@#@%@#@+#$****",
"****$*.++%.&&%%..%$$*$$$*$@@@##;#;..++..@@$@$$$$@@####@@##@$=***",
"**$**$$.+..%.%..%*****@@$@@@@@##.++++.+++.@$@@$$$@@##@#@##$*=***",
"$$***$@@++..%%%+*$**$@@$@$@$@#@++.++...+++.@@$@$#@#@@@@###$**=**",
"$***$$$@#..++++$$*$**$$$$@$@##..++.&%%++..+.@###@#@@$@@##;@*$*$$",
"$$@$$$@@@##.%..%%$$$$$$@$$@@@.++..&%%&&%%%.++#@@#@$$*$#@;;#$***$",
"*$$@$$@#@@%%..++..$@$@@@@$@@.++..%-%&&-&%...++@@$$**$@@#;##@$***",
"$**$$@##%.++++..+++%@$@@@@@.+.+%-&-&&--&%%%..++#@$*$@@#;#;##@@$$",
"@$$@@##.++++%%...+..%%@@#@@++.%&--&&--&&&&%%+..+@@$@@#;;##@##@@#",
"@#@@#@++.%&--&&-%.+++..+##++..&&&-&%&-%&&%%&&%%.+.@@##@;;@#@@##@",
"#@@++.+.%---&&---&..++..+@;+.%&=&&%**&&%&.&&&&.+++.#####;;##@@##",
"@++..+..--&&&-&---&...++.;;#%%==%&**$&%..$&&%&+.%.+.#@#.++;;;#@@",
"++..%+%.---&&&&-&&..%+.++.@#$%=**%$$**..$@%&%%.%%.+.@#.+++++@##@",
"+.+%%.%&-&&&&%%&&.%%&%&&.+#@@$*$$$$**$$$$...&%%%.%+..++....++@##",
".%.%.%%&&-%&%%&&%%%&&&%...+;#@$*$@$$$$@$...%%%%%...+.+.%..+.++@#",
"#%%@..&%&&%%%&%&%%&&%..%.++####@$$@$$@%..%%%.%%..+.++.%%.....++@",
"$#@@..%%&%%%.%%%%%%%&%...+;;##;##@$$$$@%%.%%..%.+..+.%%.%%...+.$",
"$$@..%.%%%%.%%&%%%%.++++@###;;##;#@#@@@@#%.%.%.++...%%.%&%.%%.$*",
"*$@+..%%%%%%..%&..++++#####@@#@##;#@#@@@@##.%..+++..%..%&.%&&***",
"*$$@+++..%%%%....++++#;##;..+.@@;;##@@####.%%..+.+.%%.%&%.&&$$**",
"*$$#@+..%%.....++.+++@##%.++.%.+@;;##@@##@.%..++..%..%&&%%*$$**=",
"$@$@##++..++.++.@@.+++@.+++%%&--&%@;###@###.%.+%.%%.**%&&****==*",
"$$@@@#.+++.#++.%%@@.++++..%&--&--&%.@#@@@@@+.+..%%*$***&&*==***$",
"$@@##@@.+#@@.++++..+....%%&--&-&&-&%.@@#@##;++.%#@$***$&===**$$$",
"@$@@###..+@$$@..+++..%...&--&%&&&&&&&%@@##;;;+#@##@$***$**$$$$@$",
"$@##@@+.%.-&-&%%...++.%.%---&%%&&%&%&&%@@@#@#;@#@@#@$$$$$$$$@$@@",
"$##@++.%.&&--&&%%...++%%&-&-%%%%&%%*&&&$@#@@@##++#@$@$$@$$@@$@@$",
"@@@+...%&&--&&&%$@##.+.%--&&%&%%%%**%&$*@@#@@@++++#@$@$$@@@$@@$$",
"@#+..%%%%&&-&&%&$#@##.+&-&&&&&%&%&$**%$$$#@@##@+.++++#@$$@$$$$$@",
"#++.%&-&%%%*&&%&$$@@##+.&-&&%&**&&*$$$@$$##@@@#.+...+++##@@$$@@#",
"@+.+--&%&%&$*&&$$$@#@#.+&-&&&%*$$&$$@@@$@#@@@###%%.%%.++#;##@###",
"++%%&--&&&*$$%&$$@###@.+.&&%&$$$@$$@$@$@#@@##@#;.%%.%%####;;#@#+",
"+.&%&&&**$$$$@%@$##@@@++..&%%$$$@@$$$$$$@@#####&%%&%@##@#;;..%++",
".%&&&$**$$$@@$$$#@@@#.+.++.%$$$@@$$@@$$@@@@@;;%%&%&##@@#;%.%%..+",
"+&&%%&$$%@##$$@@@#@##+@#.+.+@$$$$@#@$@@@##@;;#@@&&$**$##%%%%..++",
"++&&&%%%$$@##@#@#;;#@@#;;.++##@@#@##@@@#@#;##@#$*&==***$@#%.++++",
"..*$&&%$#@@@@#@#;;#@#@@#+.++@@#@@##@@##@@@####$*==**==**$$@%.+++",
"+#$$$$$@@##@@@#;#@##;#%%...+.@@@##@###@@##@@#@$=*****==**$$##..+",
".+@$$$@@##@##++#@##.++.%%.+++.@#@@;;#%.#@##@@$********==**$$@@%%",
"%%.+@@##@###@#++..+++.++.%.++++..;;%%.+.@@@@#$*$****==***$$$$#@.",
">>,,>>@#@@'''@#>>>,)),,)!)),>>,))!!),,,>>,,@#@~'~~~~~~~{~''@'!!#",
",,>,,>>@'''~~'@@>,)),),,)!,>>,))!!]!!),,>>>@@#'~~~~~~'~{{~''!!) ",
"),,,>@''~~~~~~'@!>,),>,),>>,)!!!]]]]!!!)),>,@@#'~'~~'~~{{'''!)! ",
"),)>>]~~'{{{~''''>>>>,,,>>,,,)!]]]!!]!))!!,>,@@@'''~~~{{~'@'@)) ",
"!),>,)]]{{{~'~''~'>>,,>>,,))),,!]]]!)!)!!@@>,>#@#'~~{{~~''@@'') ",
"),>,)]]{~~~~~''~'''>>>>>>,,!,,)!!]]]])!,)'@#>>,#@#@'~'''@''@'#> ",
",>,,]{{{{~~~~'~~~''@>>>,,)!!]]!]]]]]!!),@''@#>>,@###'''@''@'@@# ",
",>,~{{{~~~~~~~~~''>,,>,,,!]!!]]!]]!!)),'@@'@#,>>,^###@'''''@@@@ ",
">>'~~{~~~~~~~~''''@>,,),!]!!)]!]]!]),,,'@'@@@,),>,#@#@@@@@##@@@ ",
">@@~~~{~~'~~~~~'@'@^>>,))!!))!!]!'!),','''@#@),,,>>#@@###@@@##@ ",
"@#@'~''~~~'~~''''#@##>>,!)!!))!!!@',,''@'@#,,!)),,>>,##@@^^##@# ",
"##@@''~~''@'@@''#@##,>,)!))!),)!''@,''@@@#,>,)!)),,>>>,#^^#@##@ ",
"^##@@''@@''''@@@@#^,>,,'~)!),,!)@''''''@#,>,,,!!))),,>>,,,^#^^# ",
"#^#@@@@@''@@#@@@),>>,,@''@!),,)!'@'@'@@##>>,),)!!!))>,,,>,,,,,^ ",
"##@#@##@@#@@@##,>>,#@^#@''#,,,,'@''@@##^#,>,)),]!]!!)),>>>,,,,> ",
",>>##@###@@#^!)>>,@@##@@@@',),,''@@#@@^#@',,,),]]!!)))),,>>)),, ",
">>##^#@@##>>>)!!''@@@#^^##@)),)@@#^##^^@'{),,!))]]]!!))))),,)), ",
">#@^###,>>>>)!~~{{~''@#^^@#@)),#^^#@^##'~~!),!))!]]]!!))),),,,, ",
"@@##^^,>,)!!~~{{{{{~~'@#^#@@,)#@#@##^^@~~{~!,!!))]!!))!,)))),,# ",
"@##@@,>,!!!]]{{{~~~{'~'##^##,,@@@#@^^@'~'~~!)!~!)!!)))),,,),^## ",
"~'@@#,>!!]]]]]~{{~~~~'~'@##^#,#@##^@@#'''~'!!~'!!~)!)),),>,^#@' ",
"{{~',>>)]]!!]!]~~~~~~~~''@##^^^#@###@@@'''~~!~~!~''!!)@),>>@'~{ ",
"{{{~,>>,)!]!!))!~~'~~~~~'@@@#^##^##@#@'@'~~'!'!~~~'))@@,>>@'~{~ ",
"~~~{~>>,)))!!!!)'~''~'~~''@#@##^^^####@''''@'~~''@#@)@#@>#'~~~~ ",
"~~~'~,>>),!!)),,)''~'''~'@@@##^#^,,>>,,@@'@''''@@####@@##@'{~~~ ",
"~'~~'',>,,),),,)~~~~~@@'@@@@@##,>>>>,>>>,@'@@'''@@##@#@##'~{~~~ ",
"'~~~'@@>>,,)))>~'~~'@@'@'@'@#@>>,>>,,,>>>,@@'@'#@#@@@@###'~~{~~ ",
"~~~'''@#,,>>>>''~'~~''''@'@##,,>>,!))>>,,>,@###@#@@'@@##^@~'~'' ",
"'@'''@@@##,),,))''''''@''@@@,>>,,!))!!))),>>#@@#@''~'#@^^#'~~~' ",
"''@''@#@@)),,>>,,'@'@@@@'@@,>>,,)])!!]!),,,>>@@''~~'@@#^##@'~~~ ",
"~~''@##),>>>>,,>>>)@'@@@@@,>,>)]!]!!]]!))),,>>#@'~'@@#^#^##@@'' ",
"''@@##,>>>>)),,,>,,))@@#@@>>,)!]]!!]]!!!!))>,,>@@'@@#^^##@##@@# ",
"#@@#@>>,)!]]!!]),>>>,,>##>>,,!!!]!)!])!!))!!)),>,@@##@^^@#@@##@ ",
"@@>>,>,)]]]!!]]]!,,>>,,>@^>,)!{!!)~~!!)!,!!!!,>>>,#####^^##@@## ",
">>,,>,,]]!!!]!]]]!,,,>>,^^#)){{)!~~'!),,'!!)!>,),>,#@#,>>^^^#@@ ",
">,,)>),]]]!!!!]!!,,)>,>>,@#'){~~)''~~,,'@)!)),)),>,@#,>>>>>@##@ ",
",>)),)!]!!!!))!!,))!)!!,>#@@'~''''~~'''',,,!))),)>,,>>,,,,>>@## ",
"),),))!!])!))!!)))!!!),,,>^#@'~'@''''@',,,))))),,,>,>,),,>,>>@# ",
"))@,,!)!!)))!)!))!!),,),>>####@''@''@),,))),)),,>,>>,)),,,,,>>@ ",
"#@@,,))!))),)))))))!),,,>^^##^##@''''@)),)),,),>,,>,)),)),,,>,' ",
"'@,,),)))),))!)))),>>>>@###^^##^#@#@@@@#),),),>>,,,)),)!),)),'~ ",
"'@>,,)))))),,)!,,>>>>#####@@#@##^#@#@@@@##,),,>>>,,),,)!,)!!~~~ ",
"''@>>>,,)))),,,,>>>>#^##^,,>,@@^^##@@####,)),,>,>,)),)!),!!''~~ ",
"''#@>,,)),,,,,>>,>>>@##),>>,),>@^^##@@##@,),,>>,,),,)!!))~''~~{ ",
"@'@##>>,,>>,>>,@@,>>>@,>>>))!]]!)@^###@###,),>),)),~~)!!~~~~{{~ ",
"'@@@#,>>>,#>>,))@@,>>>>,,)!]]!]]!),@#@@@@@>,>,,))~'~~~!!~{{~~~' ",
"@@##@@,>#@@,>>>>,,>,,,,))!]]!]!!]!),@@#@##^>>,)#@'~~~'!{{{~~''' ",
"'@@###,,>@''@,,>>>,,),,,!]]!)!!!!!!!)@@##^^^>#@##@'~~~'~~''''@' ",
"@##@@>,),]!]!)),,,>>,),)]]]!))!!)!)!!)@@@#@#^@#@@#@''''''''@'@@ ",
"##@>>,),!!]]!!)),,,>>))!]!]))))!))~!!!'@#@@@##>>#@'@''@''@@'@@' ",
"@@>,,,)!!]]!!!)'@##,>,)]]!!)!))))~~)!'~@@#@@@>>>>#@'@''@@@'@@'' ",
"#>,,))))!!]!!)!'#@##,>!]!!!!!)!)!'~~)'''#@@##@>,>>>>#@''@'''''@ ",
">>,)!]!)))~!!)!''@@##>,!]!!)!~~!!~'''@''##@@@#,>,,,>>>##@@''@@# ",
">,>]]!)!)!'~!!'''@#@#,>!]!!!)~''!''@@@'@#@@@###)),)),>>#^##@### ",
">))!]]!!!~'')!''@###@,>,!!)!'''@''@'@'@#@@##@#^,)),))####^^#@#> ",
",!)!!!~~''''@)@'##@@@>>,,!))'''@@''''''@@#####!))!)@##@#^^,,)>> ",
")!!!'~~'''@@'''#@@@#,>,>>,)'''@@''@@''@@@@@^^))!)!##@@#^),)),,> ",
"!!))!'')@##''@@@#@##>@#,>,>@''''@#@'@@@##@^^#@@!!'~~'##)))),,>> ",
">!!!)))''@##@#@#^^#@@#^^,>>##@@#@##@@@#@#^##@#'~!{{~~~'@#),>>>> ",
",~'!!)'#@@@@#@#^^#@#@@#>,>>@@#@@##@@##@@@####'~{{~~{{~~''@),>>> ",
"#'''''@@##@@@#^#@##^#)),,,>,@@@##@###@@##@@#@'{~~~~~{{~~''##,,> ",
">@'''@@##@##>>#@##,>>,)),>>>,@#@@^^#),#@##@@'~~~~~~~~{{~~''@@)) ",
"),>@@##@###@#>>,,>>>,>>,),>>>>,,^^)),>,@@@@#'~'~~~~{{~~~''''#@, ",
",>>>>@###@@@@##>,,>,,,)))),,,>>>>,),>>>,@@@##''~~~~~~~{~'~'@### ",
"                                                                "};
