/* XPM */
static char * NETHER_GOLD_xpm[] = {
"64 128 12 1",
" 	c #511515",
".	c #501B1B",
"+	c #652828",
"@	c #572121",
"#	c #723232",
"$	c #854242",
"%	c #411616",
"&	c #C7641D",
"*	c #B34316",
"=	c #F8AF2B",
"-	c #FCEE4B",
";	c #FFFFB5",
"    .+@.@..+++@#++@@.@.@++######+###+#+@  ..@+++##+@#+@+@@@.@.  ",
"  ..@@...  .@@++#++@@..+#$$+##+###+##+@ % .@++###+@++#+++@.@... ",
"  ....@@..  .@@@++@@.. @+#$$$+##++@++#@@ % @+@+#++##++#+++@..@ .",
" ..@.@@@@@.. . @@@@.  ..+++$#$#+#+@@+++@%% .@++++#+###+++@@@@ ..",
" .@@@@++@+@@@.. % .@ % .@+##$###+++@@+@%% %%%@+@++++#++@++@.%% @",
"@.@@++@++@@+@@.. % .. % .@++#++##+@++@%% .  %%@+@@++++++@@.%%.@@",
"@@+@@+++@+++++@. ...  %% .@+++#+++++@..%  .%  .@@+@@++@@. % @@+@",
"@+@++++++++@@+@@..@..     ..@++++@@@..%..  .% ...@@++@@. % @@@@+",
"++++++#+++++@@++.&&&*. %  ....@....@@@.@@&==&% . . .@. % .@+@+@@",
"+++++#+##++++++=====&* %%  . ..  .@.@++.&=-;-=  %..  .%%.@@++@++",
"+++#####++++++=-=---==&% .  .. ..@.@++##&-;-=-& %%..  % @@+#++#+",
"#+#######++#+==----=-==&.......@@@@+##+#=-;;;==  %.%    .@++##++",
"+##$#$#######=--;;-;==-=..@@++@@+++#####==-;--==  %. .@. .@@+#++",
"##$$$##+####=-=;-;;--=-=@@++++++@+++#+#$$&=-=&=&. . .@.@. .@+@++",
"+##$####++#$=---;;-;--=&@+++###+#+#++#$#$#*&&=&*.% ..@@+@ % @+++",
"#########+$$==--;-;---=&+@+#######+######$##*&&*%%  @@+@@. %@@@+",
"+###$########==------=&+#+####$############++@*+ .%.@+#+@@. .@++",
"@+###$######+=---=--=-&#+###$$$$#########+##+++@  ..++##+@.. .@+",
"+@+##$$#$#++@+==--===&#####$$$$$$$########++++@.%..@+#$$#++@  .@",
"@++###$$#++@++&-==-&=*####$$#$$$$$$#$#+#++@+@@..% @++##$##++.   ",
"@+@+####+++++@+&=-&=&####$##$$$#$$$$###++@@@@.*& %@+#++#$++++@ .",
".@+++####+#+@+@&&==&*+#####$$$#$##$###++++@@.*&=&@+@++#$##+#++@ ",
" @@+++####+@@@@@*&&*#+####$$#$$##$###++@+@.@.&=&==@++#+####+#@+@",
" .@@++++#+++@@@..**+#+######$#$$###+##++@@..*==-;=@+##$#######+@",
". .@+@+@+++@@.@.  %++#+#########$###+++@@...&=-=-;=##$####$#$+++",
"@  @@@@+++@+@@.. % +##++######+##+#++@@...  =-;;-;=+###$###$$##+",
"+@  .@@@@@@@@..  % @+##++####+#+++++@@... .%=--;;;;=+###$#$$#$+#",
"++@.  .@@@@...  %  @#+#+++######+++@@. .   .==;-;;-=+#+#$$$$$##+",
"#++@.......    %% .@++##+###++#+@@..&*.  ...=-==--==++###$#$$$##",
"+#+++@    %%  %  ...+@+##+#+#++@@.&===* ..@@&==-==-&@++#$###$+##",
"#+#+#+.. %  .. .....@+##+###+@@.&=;-=&..@@++#&==-==@+@++###$##+#",
"####++. .  . ..@..  .@+##+++@@==-;-=&..@@++##*&=&=&.@++#########",
"#++##+@.  @@+##+@.. %%  ++@@.&=-=-==.@@++#####&&=&@..@@++#+#####",
"++#++@. .++#++##++@. %%  .. .&====&.@+++######+*&@. ..@.@+#++###",
"#+++@. @++++##==&#+@.@.%.  . .&=&&.@++##########++.  ....@+#++##",
"++@@..@+#+###===-=&+@.....  .. &*.@@+###$$##+####+@.. ..@+@+@++#",
"+@@ .@+#####=-=--;-=+@@ %%%  %..@+@+###$$#++######+@ %  ..@@.+#+",
"@ .@@+#+$##$&--=;-=-=+@. %%%% .@+@+++####$#++#+##+++@ %.....@@+#",
"..+@+#+$#$$#&=;;-;===#@.. %% .@+++#+########++#++@+@...  .. .@@+",
".@@++###$$###=-;;=-&=&+@  % ..+#+#####$#######++++@@. ..%  ..  @",
"@.@+##########=---==&&++ %   .@+##+##$#$#$###+#+@@@..**  %    . ",
".@+@+#++#######====&*++@   .  .@++##$$$#$#####+++@..&=&*% . ..  ",
"@@@+++#+++##++##&&**+@@..   . @++####$#####+#++@@..&=-=& ... % .",
"@.@@++++##+##++####+@@@.  .  %@@##+######++#+@@@..&---=&.@.@@ .@",
"@@.@@=&++##+++#+##+++@.. .%%% .@++@++#####++++@..&=-=-&...@@@.@@",
"@+@@&=-=+++++###+++@... .. %%% .@@++##++++@+@@.. &&=-=&@...@@@.@",
"+++@*&=-=@++@++++@@.  ..  ..&=% .@@++@@++@+@@.. .*&==&@+@+@@++@+",
"@#+++*&=&@@@+++@@@  %  ..  &=&==  .@@@+@++@. .  ..*&&@++#@++@@++",
"+@##+#+@*...@@.@.. % .@@@.&&==--== ...@@@..    .@@+@++##+++++@@+",
"@++##++#@@.... .. %%@@+++@&==-;;-;=&  ....  % .@@#@+###$##++@+++",
"@@@++###+++@@ .  %.@+###@.==-=-;;--==  .. %% ..@++###$$##+#+++++",
"@@+@++###+#+@@  @@+++#$#+@@==-;-;=;-=&. %%% ..@++#####$$##+++@++",
"+@@++#+###++@.@@+#++$$#$+++@&==--;==-=&% .@.@@+@########$###@++@",
"@+++#####+#++@+##++$$#$##+@@.*&===-==-= .@.@@++++##$#######+++@+",
"+++#+#####$##+##+##+####+#+@. *&&&==&==&.@@+++#+####$$#+####+@@@",
"@+#+######$$##############++@   *&&&==&&@++###+##$$#$###++#+++@@",
"+@+++##+###$###$$########+@@@..@.. **&&*++++######$$#####++++++@",
"@@@+@+##++##$#$$####$###+++@..@@@.. %%**@+@@++##$$$####+##+++@++",
"@.@@+#++@++#####$##$##+#+@@.@+@+#@   % .+@@++#+#########++++@++@",
"... @++@+#++##########++@@..@@#++@. .% .@@@+@+++##+####++++@@@@@",
". %% @++++##+######++++@.@+@+++##+@.  % .@@@+++####+#+++++@+@@..",
" %% .@@+##+#########++@.@++#++++##+..    @+@++###+$###+#+++@@..@",
"  ..@@+@@+++#++###+++@..@+#+###+++#+@...  @+@#+++##$#+++#+@...@.",
" . ..@++@@+@++##+++@@..@.@+###+#####+@@..  @++++##+#++##++@@... ",
"    .+@.@..+++@#++@@.@.@++######+###+#+@  ..@+++##+@#+@+@@@.@.  ",
"  ..@@...  .@@++#++@@..+#$$+##+###+##+@ % .@++###+@++#+++@.@... ",
"  ....@@..  .@@@++@@.. @+#$$$+##++@++#@@ % @+@+#++##++#+++@..@ .",
" ..@.@@@@@.. . @@@@.  ..+++$#$#+#+@@+++@%% .@++++#+###+++@@@@ ..",
" .@@@@++@+@@@.. % .@ % .@+##$###+++@@+@%% %%%@+@++++#++@++@.%% @",
"@.@@++@++@@+@@.. % .. % .@++#++##+@++@%% .  %%@+@@++++++@@.%%.@@",
"@@+@@+++@+++++@. ...  %% .@+++#+++++@..%  .%  .@@+@@++@@. % @@+@",
"@+@++++++++@@+@@..@..     ..@++++@@@..%..  .% ...@@++@@. % @@@@+",
"++++++#+++++@@++.&&&*. %  ....@....@@@.@@&==&% . . .@. % .@+@+@@",
"+++++#+##++++++=====&* %%  . ..  .@.@++.&=-;-=  %..  .%%.@@++@++",
"+++#####++++++=-=---==&% .  .. ..@.@++##&-;-=-& %%..  % @@+#++#+",
"#+#######++#+==----=-==&.......@@@@+##+#=-;;;==  %.%    .@++##++",
"+##$#$#######=--;;-;==-=..@@++@@+++#####==-;--==  %. .@. .@@+#++",
"##$$$##+####=-=;-;;--=-=@@++++++@+++#+#$$&=-=&=&. . .@.@. .@+@++",
"+##$####++#$=---;;-;--=&@+++###+#+#++#$#$#*&&=&*.% ..@@+@ % @+++",
"#########+$$==--;-;---=&+@+#######+######$##*&&*%%  @@+@@. %@@@+",
"+###$########==------=&+#+####$############++@*+ .%.@+#+@@. .@++",
"@+###$######+=---=--=-&#+###$$$$#########+##+++@  ..++##+@.. .@+",
"+@+##$$#$#++@+==--===&#####$$$$$$$########++++@.%..@+#$$#++@  .@",
"@++###$$#++@++&-==-&=*####$$#$$$$$$#$#+#++@+@@..% @++##$##++.   ",
"@+@+####+++++@+&=-&=&####$##$$$#$$$$###++@@@@.*& %@+#++#$++++@ .",
".@+++####+#+@+@&&==&*+#####$$$#$##$###++++@@.*&=&@+@++#$##+#++@ ",
" @@+++####+@@@@@*&&*#+####$$#$$##$###++@+@.@.&=&==@++#+####+#@+@",
" .@@++++#+++@@@..**+#+######$#$$###+##++@@..*==-;=@+##$#######+@",
". .@+@+@+++@@.@.  %++#+#########$###+++@@...&=-=-;=##$####$#$+++",
"@  @@@@+++@+@@.. % +##++######+##+#++@@...  =-;;-;=+###$###$$##+",
"+@  .@@@@@@@@..  % @+##++####+#+++++@@... .%=--;;;;=+###$#$$#$+#",
"++@.  .@@@@...  %  @#+#+++######+++@@. .   .==;-;;-=+#+#$$$$$##+",
"#++@.......    %% .@++##+###++#+@@..&*.  ...=-==--==++###$#$$$##",
"+#+++@    %%  %  ...+@+##+#+#++@@.&===* ..@@&==-==-&@++#$###$+##",
"#+#+#+.. %  .. .....@+##+###+@@.&=;-=&..@@++#&==-==@+@++###$##+#",
"####++. .  . ..@..  .@+##+++@@==-;-=&..@@++##*&=&=&.@++#########",
"#++##+@.  @@+##+@.. %%  ++@@.&=-=-==.@@++#####&&=&@..@@++#+#####",
"++#++@. .++#++##++@. %%  .. .&====&.@+++######+*&@. ..@.@+#++###",
"#+++@. @++++##==&#+@.@.%.  . .&=&&.@++##########++.  ....@+#++##",
"++@@..@+#+###===-=&+@.....  .. &*.@@+###$$##+####+@.. ..@+@+@++#",
"+@@ .@+#####=-=--;-=+@@ %%%  %..@+@+###$$#++######+@ %  ..@@.+#+",
"@ .@@+#+$##$&--=;-=-=+@. %%%% .@+@+++####$#++#+##+++@ %.....@@+#",
"..+@+#+$#$$#&=;;-;===#@.. %% .@+++#+########++#++@+@...  .. .@@+",
".@@++###$$###=-;;=-&=&+@  % ..+#+#####$#######++++@@. ..%  ..  @",
"@.@+##########=---==&&++ %   .@+##+##$#$#$###+#+@@@..**  %    . ",
".@+@+#++#######====&*++@   .  .@++##$$$#$#####+++@..&=&*% . ..  ",
"@@@+++#+++##++##&&**+@@..   . @++####$#####+#++@@..&=-=& ... % .",
"@.@@++++##+##++####+@@@.  .  %@@##+######++#+@@@..&---=&.@.@@ .@",
"@@.@@=&++##+++#+##+++@.. .%%% .@++@++#####++++@..&=-=-&...@@@.@@",
"@+@@&=-=+++++###+++@... .. %%% .@@++##++++@+@@.. &&=-=&@...@@@.@",
"+++@*&=-=@++@++++@@.  ..  ..&=% .@@++@@++@+@@.. .*&==&@+@+@@++@+",
"@#+++*&=&@@@+++@@@  %  ..  &=&==  .@@@+@++@. .  ..*&&@++#@++@@++",
"+@##+#+@*...@@.@.. % .@@@.&&==--== ...@@@..    .@@+@++##+++++@@+",
"@++##++#@@.... .. %%@@+++@&==-;;-;=&  ....  % .@@#@+###$##++@+++",
"@@@++###+++@@ .  %.@+###@.==-=-;;--==  .. %% ..@++###$$##+#+++++",
"@@+@++###+#+@@  @@+++#$#+@@==-;-;=;-=&. %%% ..@++#####$$##+++@++",
"+@@++#+###++@.@@+#++$$#$+++@&==--;==-=&% .@.@@+@########$###@++@",
"@+++#####+#++@+##++$$#$##+@@.*&===-==-= .@.@@++++##$#######+++@+",
"+++#+#####$##+##+##+####+#+@. *&&&==&==&.@@+++#+####$$#+####+@@@",
"@+#+######$$##############++@   *&&&==&&@++###+##$$#$###++#+++@@",
"+@+++##+###$###$$########+@@@..@.. **&&*++++######$$#####++++++@",
"@@@+@+##++##$#$$####$###+++@..@@@.. %%**@+@@++##$$$####+##+++@++",
"@.@@+#++@++#####$##$##+#+@@.@+@+#@   % .+@@++#+#########++++@++@",
"... @++@+#++##########++@@..@@#++@. .% .@@@+@+++##+####++++@@@@@",
". %% @++++##+######++++@.@+@+++##+@.  % .@@@+++####+#+++++@+@@..",
" %% .@@+##+#########++@.@++#++++##+..    @+@++###+$###+#+++@@..@",
"  ..@@+@@+++#++###+++@..@+#+###+++#+@...  @+@#+++##$#+++#+@...@.",
" . ..@++@@+@++##+++@@..@.@+###+#####+@@..  @++++##+#++##++@@... "};
