/* XPM */
static char * Fire+cauldron_xpm[] = {
"64 128 16 1",
" 	c None",
".	c #B13F00",
"+	c #C96C03",
"@	c #DFA21B",
"#	c #E9BD39",
"$	c #EFCD56",
"%	c #F9EBAB",
"&	c #FFFFFF",
"*	c #4F4F4F",
"=	c #595858",
"-	c #676161",
";	c #494848",
">	c #2D2D32",
",	c #343438",
"'	c #3F3E42",
")	c #5D5D5D",
"                                                                ",
"                                                                ",
"                         .                                      ",
"                        +.       .                              ",
"                        .@+     .+                              ",
"                       +@++.+   .+.                             ",
"                      +@@++.+++ +..                             ",
"                     +@@@@++.+.++.. .                           ",
"                     +@+@+@+...@+.+..                           ",
"                     +@.++@+..+@@+@.+                           ",
"                     @@..++@+.++@+@++.                          ",
"                      @+.+@@@.+@@@++.                           ",
"                      @++.@+++@@@@+..                           ",
"                      ++..+@+@@+@++.    +                       ",
"                       ++..@+@#+.+.     @+                      ",
"                        +.@+@##++..    +@++                     ",
"                        .+@@@##@++..   .+@++                    ",
"                        .+@@#$#@+++..  .+@@++                   ",
"                       ++@@#$$##@++.. .++@+@++                  ",
"                       ++@##$$$#@+@.+..+@++@+@+                 ",
"                      @+@###$$##$@@+@.+@@+@@++@+                ",
"                     @+@@##$$$#$##@#@+@#@@@#@+@+.               ",
"                     ++#@@#$$%$$##@##$##@@@#@@@@..              ",
"                     +@##@#$$%$$##@@#%$##@#@@#@@+..             ",
"                    +@##@$#$%$$###@##%##@##@##+@@.+.            ",
"                    +###@$$$%$$##@##%$#@#$#@#@+@+++..           ",
"                   +@###$#$$%$$##@#$$#@@#%$##@@+++.++           ",
"                   +@#@###$%%$$$##$#$#@#$%$###@@+..++.          ",
"                  .++@@##$$%%$%$#$$#####%%$#$#@$#.++..          ",
"                 ..++@@##$$%$%%$#$$##@#$%$$#$#$$#@+.+.          ",
"                 .++@+@@#$#$$%%$$$##@@#$%$$$$#$#@@..+           ",
"                .++@@+@@@$$#$%$$$$#@@#@%$$$$#$$#@@.+            ",
"                .+.+@@@@@#$##$%$$$##@###$$$##$$@@++             ",
"               ..+.++@+@@##$#$$$$########$$##$##@+.             ",
"            .  .+..+@+@@@#@$#$$#$#$##$###$#$#$@#+.              ",
"           .+  ++.++@++@@#@$#$$#$#$$#$##$$#$$#@@..              ",
"          ..+@ @++@+@@+@#@##$$$$###$#$$#$##$#@@@.               ",
"          ...@##+@#@@##@#@##$$$$$##$$$$$$#@##@@+.               ",
"         ..+.+@##@##@#$#@@##$$$$$###$$$$$@@#@@+.                ",
"         .++++@$#@@###$#@####$%$$###$$#$#@@@@++.                ",
"        .++++@#$$#@##$$####$#$$%$#$##$####@@@+.                 ",
"        .++.+@##$###$$$#$#$$##$%$$$$#$$##$#@+..                 ",
"         .+..+#@#$##$$$$$$#$$#$%$%$$#$$#$$##@+.                 ",
"          ...+@@#$$##$$$$##$$$$%%%$$#$$$$$$##.+                 ",
"           .+.+@@#$##$#$$#$$$$$%%$$$##$$$$$%#@+.                ",
"           .+.++@@###$#$##$$$$%%%$%$$#$$%$$%#@@..               ",
"           ++..++@##$##$#$$$$$%%$%%$$##$$%$%%#@+.               ",
"           +...+.@##$#$$$$$$%$$%$%%%$$#$$%%%%$#++.              ",
"           +.+.+.+##$$#$$%$$$%%%%$%&%$$#$$%%%%##+.              ",
"           +.++.++@##$%$$%$$$%&%%%&&%$$#$$%%$%$##+.             ",
"           .++@.+@@$#$%$%%$%$%%&%%&%%$#$$%%$$%$@#++             ",
"           .+@#++@@$$$&%%$$%%%%&%%%%$$##$%$$$$%+@+@             ",
"          ..++#@+@#$$&&%%$%$%%&&%%$%$$$#$%$$#$@++@@.            ",
"          .+++@##@#$$%&%%$%%%%&%%$%$$$%$$$$##$@@+@@.            ",
"         +.+++#####$$$%&$%%&%%%%$$%$$%%$$$$#$#@+@+@.            ",
"         .+++##$##$%$$%$$%%&%%%%$%%%$%$%$$#$$#@+@++..           ",
"        +.+@+##$$#$%$$$%$%&%%&%%%$%%%$$%$##$$##@@+.+.           ",
"        +@+@##$#$#$$%$$%%%&&%%&%%$%%%$$$$#@$#$#@@+++..          ",
"       ++@#@#$$##$$%%$$%%%%&&%&&%%%&%%$$$$#@#$#@#@+++.          ",
"       @+@###$$#$$$%%$$%%%%&%%&&%%%&%%%$$$#@@#$##@@++.          ",
"      +#@+##$#$$#$$%$%$%%&%%%&&&&%%%&%%$%$##@#$#@@#+..          ",
"      +##@#$$#$$#$$$$%%%%&&%%&&%&%%%&&%%%$$##$$@@@#..+          ",
"     ++@#$#$#$$$$$$%$%%%%&&%&&&%%%&%&&&%%$%$####@##+.++         ",
"    +@@##$$##$$$$$%%%%%%&&&&&&&%%%&&&&&%%%%$####@##++++         ",
"**************====----==----------------===**=====*==***********",
"*****************==--========---------==*=****==*****=**********",
"********************==****==*========***************************",
"**********************=*********====****************************",
"***;************************************************************",
"*;;*************;****;**********************************;***;***",
";;**;;****;;*;***;;*;*;;;***;**;******;;*;;;;*;*;***;;*;;;***;;;",
";;;;;;;;***;;**;;;***;;;**;**;;;;;;**;;***;*;;***;;;;;;**;;;;;;;",
">>>>>>>>,,>>>>>>>>,,,,,,,>,>>,,>>>>>,,,,,,,>>,>>>>>>>>,,>>>>>>>>",
",,,,,,,,,,,>>>>>>,,,''',,'',''',,,,,,,'''',,,,,>>>>>>,,,,,,,,,,,",
",,,,,,,''',',>>>,'''';;;'';;;''';''''';;;''',',,>>>,'''',,,''',,",
",,,,''';;'',,''',,'';'';;'';;;;'';;'';*;;;';',,'',,'''','',,''',",
",,''';;;'';;';;''';**;;;;;**;;';**'';*;**';;;;'''''';;';';;','''",
"'',''';;;;;';;''';;;**;;*=****;**;;;'******;*;;;;'''';;;;;''';''",
"'';;;;;;;;;;;;;;;;**=*****==***==**===*=**=***;;;;;';';**'';;;;'",
";'';;;;;*;;**;;;*;;**==*===**===**==*==****===*;;**;;***;;;';;';",
";;*;;**;;***;;;*;**;**============**====*====**=**;**=****;;;;;;",
";;;******;*******=**===============**========*===*****==****;;;;",
";****;;********=**============================**==*====****;;**;",
"****;;********===============-=================**=====*******;**",
"*;*;*****=**==*======---======---=-====================*****;;**",
"**;;;*****===***====---========-----===================*=*;*;***",
"****;;*===*=*=========--=========--========-============***;;*;*",
"******;*================--======--==-=====---===========***;;;**",
"*****;****=============--=--==------=========--=======*=**;**;;*",
"****;;*****=======-===-====-=---==-====--===--========*****;*;**",
"****;***=*=========--===---====--====---=============*=*********",
"*********=========--=====-====-=======-=========*=======********",
"************=========================-=========*=======*****;;**",
"*********=*===============================--==========*****;;***",
"**********=================================-========*=***;;;;;**",
"****';*;*===========================*=======-========***;*;';;;*",
"**;;;'';;***=========================*=============***;;;'';;***",
"*;;*;;''***==================================**=====***;'';;****",
"***;**;;;;;***=========*====================*=====**;;**;;******",
"***;;**;;;*;*****==============================***;;;*;**;;*;**;",
"**;;;;;*;;;;;;;;***=========================***;*;;;**;;;;;;;;;*",
"****;;;;;;';';;*;*=================*=========*;*';;;;;*;;;;;*;**",
"******;;;;;';;******==*=***=========**====***;;;;'';;;;;*;;*****",
"*****;;*;;;;;;;**;;***=***=======*******=***;*;;'';;;;;;********",
"***********;;;*;;;;;*;***;***=**==**;;****;;;;;;;;;;*;**********",
"************;;;;;';;;***;;;;******=**;;**;**;*;;**;;;***********",
"**********;;;*;;';'';;;;;;*****;;;**;;*******;;*****************",
"***********;*;;;;'';;;;;;*;**;;*;;;;**;*******;;****************",
"****=*==****;****;;;;*;;;;;;**;';;;;;**;;***************==*=****",
"**====*************;;;**;;;;;;;;'';;;;;;;;**;*************====**",
"*==************;****;**;;;;;;;';;;;;;'';;;;;****;************==*",
"====**********;***;;*;;;;;;;;;;;;;;;;;'';;;*;;***;**********====",
"==**=****;**;;*;;**;;;'';;;;'';';;';'';;;;';;**;;*;;**;****=**==",
"**=*******;;;;;;;;;;;;;'';''';;;''''''';'';;;;;;;;;;;;*******=**",
"***********;**;;;;;';'''''''''';;'''''''''''';;;;;**;***********",
"*********;***;;;;;'''',,','''''''',,'',''''''';;;;;***;*********",
"==********;;*;;;'''',,,',,',,,'',,,'','',,'''''';;;*;;********==",
"*==**;****;*;*;'';''',,,,,,,,','',,,,,,'',,''';'';*;*;****;**==*",
"***=**;;****;;';;''',,,,,,,,,,,,,,,,,,,,,,,,''';;';;****;;**=***",
"**=***;******;;;;;',>>>>>>>>>>>>>>>>>>>>>>>>,';;;;;******;***=**",
"*;**;;*;;;**;;;;';'>))))))))))))))))))))))))>';';;;;**;;;*;;**;*",
";**;;';';;;**;'''',>))))))))))))))))))))))))>,'''';**;;;';';;**;",
";;;*;;''';;;;*;'',,>))))))))))))))))))))))))>,,'';*;;;;''';;*;;;",
";;';'''';;';';'',',>))))))))))))))))))))))))>,','';';';;'''';';;",
";','',,''';'''',,,,>))))))))))))))))))))))))>,,,,'''';''',,'',';",
"''',,,','''',,'',>,>))))))))))))))))))))))))>,>,'',,'''',',,,'''",
",,'',,,,,',,,,,,,,>>))))))))))))))))))))))))>>,,,,,,,,',,,,,'',,",
">,,,,,,,,,,,>>>>>>>>))))))))))))))))))))))))>>>>>>>>,,,,,,,,,,,>"};
