/* XPM */
static char * red_lamp_top_off_xpm[] = {
"64 128 16 1",
" 	c #311A11",
".	c #462C1B",
"+	c #5F3315",
"@	c #73411F",
"#	c #864E29",
"$	c #935831",
"%	c #90552D",
"&	c #A06036",
"*	c #AF693B",
"=	c #3B2015",
"-	c #463714",
";	c #946931",
">	c #BD813D",
",	c #E6994A",
"'	c #F2BD74",
")	c #F6DAB4",
"                                                                ",
" ...........  ................    ................  ........... ",
" ...+++++..  .++@@@@#$$#@@@+++.   +++@@@##%&&%%@@+.  ..+++++... ",
" ..+++++..  .+@@@@##$$#$##@@++.   ++@@##%&%&%##%#@+.  ..+++++.. ",
" .+++++..  .+@@###$$#######@++.   ++@##%&&&##%$$&#@+.  ..+++++. ",
" .++++..  .+@@##$$$$$####$##@+.   +@##%&%###$$&**&#@+.  ..++++. ",
" .+++..  .+@@#$$##$$$$#$$###@+.   +@#%&%#%#$%#$&$$$#@+.  ..+++. ",
" .++..  .+@@###$$##$$$$#$$$#@+.   +@#&&###%$###$##$$@@+.  ..++. ",
" .+..  .+@@##$$#$$$##$$##$##@+.   +@&%##%$#%#%###$$$%@@+.  ..+. ",
" ...  .+@@&&$$&&$$##&#$$####@+    +@%&%%$$##%$#$$$#%%#@@+.  ... ",
" ..  .+@@#$$&&&##$$&*&$$##$@+.    .+@%#%#$$#$#$$###%###@@+.  .. ",
" .  .+@@#$$&&&$$###$**$$$#@+.      .+@%##%$$##%#%#%##%%#@@+.  . ",
"   .+@@%$&&&$&&$%###&*&$$@+.  .++.  .+@#%%###$#%#%%%%#%%&@@+.   ",
"  .+@@%&&&$$&$$&%%%#$&*&@+.  .+@@+.  .+@###%$###%%%&&%%%&&#@+.  ",
" .+@@#&&&$$&$$&&%##$&**%+.  .+@##@+.  .+@#%$##%%#%%%&&%&&$$#@+. ",
" .+@@%&$&&&&&&&%&%#&**%+.  .+@##$$@+.  .+@##%%%&%%%&&%&&$&&#@+. ",
" .@@%&&$$&$&&$&%%#%*&%@.  .+@#$$##%@+.  .+@%%&&&%&&$&&$$&&$$#@. ",
" .@@&&$&&&$$$&%###%*%@.  .+@#$#$$##%@+.  .+#&%&%%%&&$$$$$$$$#@. ",
" .@#$&&&&$$&%%###&*%@.  .+@$##%&&%%##@+.  .+#&###$$$$##$$#$$%#. ",
" .@#%$&&$&&&%%#&**%@.  .+@##$%&&$&&%%#@+.  .@#$####$$$####$#%#. ",
" .#%%#%&&&&%%&&*&%@.  .+@#%$$&&$$&%%&&&@+.  .@#&$#$$##$$#$$##%. ",
" .%%###%&%%%&*&&%@.  .+@#$$%%$&$&&%&&%%%@+.  .@#$$#$$$#$$$&%#%. ",
" .#%##%#%%&%%&*%+.  .+@#$$%%$$$&&$&&%&%&#@+.  .@#$$#$##$&&*&%#. ",
" .###%%##%&&%*%+.  .+@#%%$&$$##$$&&%%$&$%#@+.  .@#$$#$$&$$&*&@. ",
" .@#@#%%#%%&*@+.  .+@#%$&&%##$###%%$$&&$%##@+.  .@#$$&**&$&*#@. ",
" .@@##@@##%%@+.  .+@#%$&&%##$##$$$#$&&$%%%##@+.  .@#*&&**&$&@@. ",
" .@@#@##@##@+.  .+@#%%&&$#$$$$##$#$$$$#%%%%##@+.  .@#***&**#@@. ",
" .+@@##@@@@+.  .+@#%%&$&###$$#$$###$####%##%%#@+.  .@#&&*%#@@+. ",
" .+++@@@@@+.  .+@##%%&&$#$$$########$$####%%%%%@+.  .@####@+++. ",
" .++++++++.  .+@##%%$&$$$$##$$#$#####$$#%%%%%##%@+.  .++++++++. ",
"  .......   .+@##$%%&$$%$#$$#%$###%#$####%%%##%%#@+.   .......  ",
"            +@##$%$%&&%%#$$##%%$$##$%%####%#%%%%%#@+            ",
"            +@##%$$%$&$%##$#%$##$$%%$###$$###&%%%#@+            ",
"            .+@##%$$$$#$$###$####$###$####%&*%%%%@+.            ",
" .++++++++.  .+@##%$%$#$#$#$##$$##$#$$$#$#&*%%%%#+.  .++++++++. ",
" .+++@@###+.  .+@##%$$$##$$##$$##$$$$####&*&%%%#+.  .+@##@@+++. ",
" .+@@##&&##+.  .+@##%$$#$#$$###$$#$$#$#$&**%%%#@.  .+@#%###@@+. ",
" .@@#$&$%&%#+.  .+@##%$$###$##$$###$#$$&*%&%%#@.  .+@#%%%%##@@. ",
" .@$&&$&$%&%#+.  .+@##$$####$#$##$&&&$&&%&%%#+.  .+@#%&%&&%##@. ",
" .@$$&&&&&&$%#@.  .+@##$$#$##$#$$&$&$&**&#%#@.  .+@#%%%&*&*%#@. ",
" .$$$#$&&$$$#%#@+  .+@##$$####$$&&&$&**&##@+.  .+@%%%##%%*&*&#. ",
" .$$##$$$&$###%%@+  .+@###$#$#$$&$$&*%&##@+.  .+@%#%##%#%%&&%#. ",
" .$##$#$$$#%#%#%%@+  .+@#$##$##$$$&*&&%%@+.  .+@%%##$%##%&%%%%. ",
" .#$##$$$#%%##$%$%@+  .+@##$##$$$#**##%@+.  .+@#%%%##$%##%%%#%. ",
" .$##%$$%#%#%#$$%%%@.  .+@###$$##*&#&%@+.  .+@#$$%%##$$$%#%##@. ",
" .##%%%$#%##%$#$%%#%+.  .+@#$$##&%&&#@+.  .+@%$$$$$%##$####%#@. ",
" .@%%%##%##%$$$&&%%#%+.  .+@##$$##%%@+.  .+@%$##$$$$$%#%#%%#@@. ",
" .@#%##%%%#%$&&&%###%%+.  .+@##$$##@+.  .+@%$##$$##$$$%#%%##@+. ",
" .@@#%%##%%%&%&%%%#%#%%+.  .+@####@+.  .+@%$#$#$##$$$&$####@@+. ",
" .+@%##%%%%&*&%&%%%###%%@.  .+@##@+.  .+@%$#$#$$$#$$*$&%#%#@++. ",
"  .+@#%%%%&**&%%%##%%%##%@+  .+@@+.  .+@#$$##$$$#$#&&**&%#@@+.  ",
"   .+@#%%%&*&%%###%%%##%#%@+  .++.  .+@#$$##$$%#$$##$*&$#@@+.   ",
" .  .+@#%&*&%%#%#%%#%%###%%@.      .+@#$$##$$%###$#$$&$&@@+.  . ",
" ..  .+@#&*&%###%%##%%$#%#%%@.    .+@$####$$##$$$#%#$$&@@+.  .. ",
" ...  .+@#&*##%%%##%$$%%%##%%+    +@$$$$###$%##%$##%%%@@+.  ... ",
" .+..  .+@#*&%%##%#$$%%%##%#%+.   +#$$$##$$#$%%$##%%%@@+.  ..+. ",
" .++..  .+@#*&#%##$%%##%%#%%#+.   +##$$#$#$$#$$#%%$$@@+.  ..++. ",
" .+++..  .+@#*%##%%%#%##%%%%@+.   +@##$$#####$###%$@@+.  ..+++. ",
" .++++..  .+@#&%##%###%$$%%#@+.   +@###$$$##$$%%%#@@+.  ..++++. ",
" .+++++..  .+@##%%##%%$%$$#@++.   ++@#$##$$###%#@@@+.  ..+++++. ",
" ..+++++..  .++@##%%%$$$%#@@++.   ++@@#$$##$##@@++..  ..+++++.. ",
" ...+++++..  .+++@##$$%#@@@+++.   +++@@@#$$#@@++...  ..+++++... ",
" ...........  ................    ................  ........... ",
"                                                                ",
"================================================================",
"=-----------==-----------------===----------------==-----------=",
"=---;;;;;--==-;;;;>>>,,>;;;;;;-===;;;;;;>>,,,,,,>;-==--;;;;;---=",
"=--;;;;;--==-;;;>>>>,,,,,>;;;;-===;;;>>,,,,,',,,,>;-==--;;;;;--=",
"=-;;;;;--==-;>>,,,,,,','',>;;;-===;;>,,,'','',,,,,>;-==--;;;;;-=",
"=-;;;;--==-;>>,',,,'','',',>;;-===;;>,,'','''',,,,,>;-==--;;;;-=",
"=-;;;--==-;>>,,,'',,'',,'',>;;-===;>,,',',,'))'',,,,>;-==--;;;-=",
"=-;;--==-;>>,,''',,'',,',,',>;-===;>,,'',''))'')'',,,>;-==--;;-=",
"=-;--==-;>>,''''))',''',,',,>;-===;>,,'',,)))'))'''',,>;-==--;-=",
"=---==-;>>,))''))''',,''',',>;====;>,,,'',''))'))'))',,>;-==---=",
"=--==-;>>,''')))''')),,,'',>;-====-;>,,',')''')))))''',,>;-==--=",
"=-==-;>>,')'))')'))''',','>;-======-;>,,''))'))'')'))''',>;-==-=",
"===-;>>,'')))'))))',,'',,>;-==-;;-==-;>,,''))'')''))))',,,>;-===",
"==-;>>,',,')''))'')',,',>;-==-;>>;-==-;>,,''''))))')'',,,',>;-==",
"=-;>>,,'',,')))'')'''',>;-==-;>,,>;-==-;>,,''))''))'''',',',>;-=",
"=-;>>,,')'))')'))',,',>;-==-;>,,,,>;-==-;>,,,'')'')))',''',,>;-=",
"=->>,,'''))'''))',,',>;-==-;>,'',,,>;-==-;>,,,,'))''))''',,''>-=",
"=->>,,'','')',')''',>;-==-;>,'','',,>;-==-;>,',,)')'')',,,'',>-=",
"=->,,'''',,'),,',',>;-==-;>,'',,,,'',>;-==-;>,''')))'',,,',',,-=",
"=->,,'',,,'))',',,>;-==-;>,''''','',',>;-==-;>,','')',,'''',,,-=",
"=-,,',',,'')))',,>;-==-;>,'''))''',,,,,>;-==-;>,',,')'',',,,,,-=",
"=-,,'',,'')))',,>;-==-;>,'''))'''''',,,,>;-==-;>,',',,'',,,,,,-=",
"=-,','',,')'',,>;-==-;>,'','''''))'''',,,>;-==-;>,'''',,,,,,,>-=",
"=-,,,,,',,'',,>;-==-;>'',',)')'))'')','',,>;-==-;>,'',,'',,,,>-=",
"=->,>,,,,,,,,>;-==-;>'',','))')')'))'',,',,>;-==-;>,,,'','',,;-=",
"=->>,,>>,,,,>;-==-;>',,''')')'))'))))'',',,,>;-==-;>,,,,'',,>;-=",
"=->>,>,,>,,>;-==-;>,,,'')))))))))))'')'''',,,>;-==-;>,,,,,,,>;-=",
"=-;>>,,>>>>;-==-;>,,,'))')))''))))'))))')',,',>;-==-;>,,,,,>;;-=",
"=-;;;>>>>>;-==-;>,,,'''))))')'')''))')))''',,',>;-==-;>>>>;;;;-=",
"=-;;;;;;;;-==-;>,,,''','')'')))''))'''')',','',,>;-==-;;;;;;;;-=",
"=--------===-;>,,,'',,'''''))))))''))')','''',,,,>;-===--------=",
"============;>,,,,',,','')))')''))''))'',',',,',,,>;============",
"============;>,,,,'''''')))')''))'))',',',,',,,,''>;============",
"============-;>,,,,'',,')'''')))))',,'''',,,,,'',>;-============",
"=-;;;;;;;;-==-;>,'','',,''))')))'','))','',,,'',>;-==-;;;;;;;;-=",
"=-;;;>>,,,;-==-;>,'',,''','))')))'''')),,'','',>;-==-;>,,>>;;;-=",
"=-;>>,,,,,,;-==-;>,,',,,'',''))')),,'',,,,,'',>;-==-;>,,,,,>>;-=",
"=->>,,,,,,,,;-==-;>,''',,,''))''')',,'',',,',>;-==-;>,,,'',,>>-=",
"=->,,,,,'',,,;-==-;>,',',,,,,',,''',,',',,',>;-==-;>',,'','',>-=",
"=->,,,,''''',,;-==-;>,'''',''''',,'',,'',,'>;-==-;,'''',,'',,>-=",
"=-,,,,'''',,'',;-==-;>,,,'''',',,'',,,,'',>;-==-;,',,''',',,,,-=",
"=-,,,''',,,',,',;-==-;>,,,',,,,'',,'',,,,>;-==-;,',,'','',',,,-=",
"=-,,'',,',',,''',;-==-;>,,,','',,'','',,>;-==-;,',)'''',,,',,,-=",
"=-,,,'',,''''',,',;-==-;>,,,'',,,,'',,,>;-==-;,''')))''',',,,,-=",
"=-,,,''''')'''',,',;-==-;>,,,,,,,,,,,,>;-==-;,'')'')'),'',,,,>-=",
"=-,,,,',')')'))'''',;-==-;>,,,,,'',,,>;-==-;>'))))''))',,,,,,>-=",
"=->,,,','))')''))''',;-==-;>,,'','',>;-==-;>')'')')))',,,',,>>-=",
"=->,,,,'))')))'')))'',;-==-;>,,'',,>;-==-;>,))'))'')'',''',,>;-=",
"=->>,,,'''')')))))'')',;-==-;>,,,,>;-==-;>,''))'')'')'',',,>>;-=",
"=-;>,,,','))''))''))''',;-==-;>,,>;-==-;>,,',,')''))','',,,>;;-=",
"==-;>,,,'')'))'')))'',,,,;-==-;>>;-==-;>,,',,'))))'''',,,,>>;-==",
"===-;>,,,''))))'')'''',,,,;-==-;;-==-;>,,,''))))'''',,,,,>>;-===",
"=-==-;>,,',')))))''))''',,,;-======-;>,,,'))'))'',',,,,,>>;-==-=",
"=--==-;>,,''''))')))'',''',,;-====-;>,,''''))')))',,,,,>>;-==--=",
"=---==-;>,,',',,)))'','','',,;====;>,,''','','''',,,,,>>;-==---=",
"=-;--==-;>,,',,')'''',',',,',;-===;,,'',,,,',,',,,,,,>>;-==--;-=",
"=-;;--==-;>,,'','',''','',,,,;-===;,',,','',',',,,,,>>;-==--;;-=",
"=-;;;--==-;>,,,'',,,,',,'',,,;-===;,'',,'',,'',,,,,>>;-==--;;;-=",
"=-;;;;--==-;>,,,,,,,',,,,,,,,;-===;,,''',,',,',,,,>>;-==--;;;;-=",
"=-;;;;;--==-;>,,,,,,,,,,,,,,>;-===;>,,,,,,,,,,,,>>>;-==--;;;;;-=",
"=--;;;;;--==-;;>,,,,,,,,,,,,>;-===;>,,,,,,,,,,>>;;--==--;;;;;--=",
"=---;;;;;--==-;;;>,,>>>>,>,>;;-===;;>,,,,,,,>>;;---==--;;;;;---=",
"=-----------==-----------------===----------------==-----------=",
"================================================================"};
