/* XPM */
static char * red_lamp_on_xpm[] = {
"64 128 7 1",
" 	c #3B2015",
".	c #463714",
"+	c #946931",
"@	c #BD813D",
"#	c #E6994A",
"$	c #F2BD74",
"%	c #F6DAB4",
"                                                                ",
" ...........  .................   ................  ........... ",
" ...+++++..  .++++@@@##@++++++.   ++++++@@######@+.  ..+++++... ",
" ..+++++..  .+++@@@@#####@++++.   +++@@#####$####@+.  ..+++++.. ",
" .+++++..  .+@@######$#$$#@+++.   ++@###$$#$$#####@+.  ..+++++. ",
" .++++..  .+@@#$###$$#$$#$#@++.   ++@##$$#$$$$#####@+.  ..++++. ",
" .+++..  .+@@###$$##$$##$$#@++.   +@##$#$##$%%$$####@+.  ..+++. ",
" .++..  .+@@##$$$##$$##$##$#@+.   +@##$$#$$%%$$%$$###@+.  ..++. ",
" .+..  .+@@#$$$$%%$#$$$##$##@+.   +@##$$##%%%$%%$$$$##@+.  ..+. ",
" ...  .+@@#%%$$%%$$$##$$$#$#@+    +@###$$#$$%%$%%$%%$##@+.  ... ",
" ..  .+@@#$$$%%%$$$%%###$$#@+.    .+@##$#$%$$$%%%%%$$$##@+.  .. ",
" .  .+@@#$%$%%$%$%%$$$#$#$@+.      .+@##$$%%$%%$$%$%%$$$#@+.  . ",
"   .+@@#$$%%%$%%%%$##$$##@+.  .++.  .+@##$$%%$$%$$%%%%$###@+.   ",
"  .+@@#$##$%$$%%$$%$##$#@+.  .+@@+.  .+@##$$$$%%%%$%$$###$#@+.  ",
" .+@@##$$##$%%%$$%$$$$#@+.  .+@##@+.  .+@##$$%%$$%%$$$$#$#$#@+. ",
" .+@@##$%$%%$%$%%$##$#@+.  .+@####@+.  .+@###$$%$$%%%$#$$$##@+. ",
" .@@##$$$%%$$$%%$##$#@+.  .+@#$$###@+.  .+@####$%%$$%%$$$##$$@. ",
" .@@##$$#$$%$#$%$$$#@+.  .+@#$$#$$##@+.  .+@#$##%$%$$%$###$$#@. ",
" .@##$$$$##$%##$#$#@+.  .+@#$$####$$#@+.  .+@#$$$%%%$$###$#$##. ",
" .@##$$###$%%$#$##@+.  .+@#$$$$$#$$#$#@+.  .+@#$#$$%$##$$$$###. ",
" .##$#$##$$%%%$##@+.  .+@#$$$%%$$$#####@+.  .+@#$##$%$$#$#####. ",
" .##$$##$$%%%$##@+.  .+@#$$$%%$$$$$$####@+.  .+@#$#$##$$######. ",
" .#$#$$##$%$$##@+.  .+@#$$#$$$$$%%$$$$###@+.  .+@#$$$$#######@. ",
" .#####$##$$##@+.  .+@$$#$#%$%$%%$$%$#$$##@+.  .+@#$$##$$####@. ",
" .@#@########@+.  .+@$$#$#$%%$%$%$%%$$##$##@+.  .+@###$$#$$##+. ",
" .@@##@@####@+.  .+@$##$$$%$%$%%$%%%%$$#$###@+.  .+@####$$##@+. ",
" .@@#@##@##@+.  .+@###$$%%%%%%%%%%%$$%$$$$###@+.  .+@#######@+. ",
" .+@@##@@@@+.  .+@###$%%$%%%$$%%%%$%%%%$%$##$#@+.  .+@#####@++. ",
" .+++@@@@@+.  .+@###$$$%%%%$%$$%$$%%$%%%$$$##$#@+.  .+@@@@++++. ",
" .++++++++.  .+@###$$$#$$%$$%%%$$%%$$$$%$#$#$$##@+.  .++++++++. ",
" ........   .+@###$$##$$$$$%%%%%%$$%%$%$#$$$$####@+.   ........ ",
"            +@####$##$#$$%%%$%$$%%$$%%$$#$#$##$###@+            ",
"            +@####$$$$$$%%%$%$$%%$%%$#$#$##$####$$@+            ",
"            .+@####$$##$%$$$$%%%%%$##$$$$#####$$#@+.            ",
" .++++++++.  .+@#$$#$$##$$%%$%%%$$#$%%$#$$###$$#@+.  .++++++++. ",
" .+++@@###+.  .+@#$$##$$$#$%%$%%%$$$$%%##$$#$$#@+.  .+@##@@+++. ",
" .+@@######+.  .+@##$###$$#$$%%$%%##$$#####$$#@+.  .+@#####@@+. ",
" .@@########+.  .+@#$$$###$$%%$$$%$##$$#$##$#@+.  .+@###$$##@@. ",
" .@#####$$###+.  .+@#$#$#####$##$$$##$#$##$#@+.  .+@$##$$#$$#@. ",
" .@####$$$$$##+.  .+@#$$$$#$$$$$##$$##$$##$@+.  .+#$$$$##$$##@. ",
" .####$$$$##$$#+.  .+@###$$$$#$##$$####$$#@+.  .+#$##$$$#$####. ",
" .###$$$###$##$#+.  .+@###$####$$##$$####@+.  .+#$##$$#$$#$###. ",
" .##$$##$#$##$$$#+.  .+@###$#$$##$$#$$##@+.  .+#$#%$$$$###$###. ",
" .###$$##$$$$$##$#+.  .+@###$$####$$###@+.  .+#$$$%%%$$$#$####. ",
" .###$$$$$%$$$$##$#+.  .+@############@+.  .+#$$%$$%$%#$$####@. ",
" .####$#$%$%$%%$$$$#+.  .+@#####$$###@+.  .+@$%%%%$$%%$######@. ",
" .@###$#$%%$%$$%%$$$#+.  .+@##$$#$$#@+.  .+@$%$$%$%%%$###$##@@. ",
" .@####$%%$%%%$$%%%$$#+.  .+@##$$##@+.  .+@#%%$%%$$%$$#$$$##@+. ",
" .@@###$$$$%$%%%%%$$%$#+.  .+@####@+.  .+@#$$%%$$%$$%$$#$##@@+. ",
" .+@###$#$%%$$%%$$%%$$$#+.  .+@##@+.  .+@##$##$%$$%%$#$$###@++. ",
"  .+@###$$%$%%$$%%%$$####+.  .+@@+.  .+@##$##$%%%%$$$$####@@+.  ",
"   .+@###$$%%%%$$%$$$$####+.  .++.  .+@###$$%%%%$$$$#####@@+.   ",
" .  .+@##$#$%%%%%$$%%$$$###+.      .+@###$%%$%%$$#$#####@@+.  . ",
" ..  .+@##$$$$%%$%%%$$#$$$##+.    .+@##$$$$%%$%%%$#####@@+.  .. ",
" ...  .+@##$#$##%%%$$#$$#$$##+    +@##$$$#$$#$$$$#####@@+.  ... ",
" .+..  .+@##$##$%$$$$#$#$##$#+.   +##$$####$##$######@@+.  ..+. ",
" .++..  .+@##$$#$$#$$$#$$####+.   +#$##$#$$#$#$#####@@+.  ..++. ",
" .+++..  .+@###$$####$##$$###+.   +#$$##$$##$$#####@@+.  ..+++. ",
" .++++..  .+@#######$########+.   +##$$$##$##$####@@+.  ..++++. ",
" .+++++..  .+@##############@+.   +@############@@@+.  ..+++++. ",
" ..+++++..  .++@############@+.   +@##########@@++..  ..+++++.. ",
" ...+++++..  .+++@##@@@@#@#@++.   ++@#######@@++...  ..+++++... ",
" ...........  .................   ................  ........... ",
"                                                                ",
"                                                                ",
" ...........  .................   ................  ........... ",
" ...+++++..  .++++@@@##@++++++.   ++++++@@######@+.  ..+++++... ",
" ..+++++..  .+++@@@@#####@++++.   +++@@#####$####@+.  ..+++++.. ",
" .+++++..  .+@@######$#$$#@+++.   ++@###$$#$$#####@+.  ..+++++. ",
" .++++..  .+@@#$###$$#$$#$#@++.   ++@##$$#$$$$#####@+.  ..++++. ",
" .+++..  .+@@###$$##$$##$$#@++.   +@##$#$##$%%$$####@+.  ..+++. ",
" .++..  .+@@##$$$##$$##$##$#@+.   +@##$$#$$%%$$%$$###@+.  ..++. ",
" .+..  .+@@#$$$$%%$#$$$##$##@+.   +@##$$##%%%$%%$$$$##@+.  ..+. ",
" ...  .+@@#%%$$%%$$$##$$$#$#@+    +@###$$#$$%%$%%$%%$##@+.  ... ",
" ..  .+@@#$$$%%%$$$%%###$$#@+.    .+@##$#$%$$$%%%%%$$$##@+.  .. ",
" .  .+@@#$%$%%$%$%%$$$#$#$@+.      .+@##$$%%$%%$$%$%%$$$#@+.  . ",
"   .+@@#$$%%%$%%%%$##$$##@+.  .++.  .+@##$$%%$$%$$%%%%$###@+.   ",
"  .+@@#$##$%$$%%$$%$##$#@+.  .+@@+.  .+@##$$$$%%%%$%$$###$#@+.  ",
" .+@@##$$##$%%%$$%$$$$#@+.  .+@##@+.  .+@##$$%%$$%%$$$$#$#$#@+. ",
" .+@@##$%$%%$%$%%$##$#@+.  .+@####@+.  .+@###$$%$$%%%$#$$$##@+. ",
" .@@##$$$%%$$$%%$##$#@+.  .+@#$$###@+.  .+@####$%%$$%%$$$##$$@. ",
" .@@##$$#$$%$#$%$$$#@+.  .+@#$$#$$##@+.  .+@#$##%$%$$%$###$$#@. ",
" .@##$$$$##$%##$#$#@+.  .+@#$$####$$#@+.  .+@#$$$%%%$$###$#$##. ",
" .@##$$###$%%$#$##@+.  .+@#$$$$$#$$#$#@+.  .+@#$#$$%$##$$$$###. ",
" .##$#$##$$%%%$##@+.  .+@#$$$%%$$$#####@+.  .+@#$##$%$$#$#####. ",
" .##$$##$$%%%$##@+.  .+@#$$$%%$$$$$$####@+.  .+@#$#$##$$######. ",
" .#$#$$##$%$$##@+.  .+@#$$#$$$$$%%$$$$###@+.  .+@#$$$$#######@. ",
" .#####$##$$##@+.  .+@$$#$#%$%$%%$$%$#$$##@+.  .+@#$$##$$####@. ",
" .@#@########@+.  .+@$$#$#$%%$%$%$%%$$##$##@+.  .+@###$$#$$##+. ",
" .@@##@@####@+.  .+@$##$$$%$%$%%$%%%%$$#$###@+.  .+@####$$##@+. ",
" .@@#@##@##@+.  .+@###$$%%%%%%%%%%%$$%$$$$###@+.  .+@#######@+. ",
" .+@@##@@@@+.  .+@###$%%$%%%$$%%%%$%%%%$%$##$#@+.  .+@#####@++. ",
" .+++@@@@@+.  .+@###$$$%%%%$%$$%$$%%$%%%$$$##$#@+.  .+@@@@++++. ",
" .++++++++.  .+@###$$$#$$%$$%%%$$%%$$$$%$#$#$$##@+.  .++++++++. ",
" ........   .+@###$$##$$$$$%%%%%%$$%%$%$#$$$$####@+.   ........ ",
"            +@####$##$#$$%%%$%$$%%$$%%$$#$#$##$###@+            ",
"            +@####$$$$$$%%%$%$$%%$%%$#$#$##$####$$@+            ",
"            .+@####$$##$%$$$$%%%%%$##$$$$#####$$#@+.            ",
" .++++++++.  .+@#$$#$$##$$%%$%%%$$#$%%$#$$###$$#@+.  .++++++++. ",
" .+++@@###+.  .+@#$$##$$$#$%%$%%%$$$$%%##$$#$$#@+.  .+@##@@+++. ",
" .+@@######+.  .+@##$###$$#$$%%$%%##$$#####$$#@+.  .+@#####@@+. ",
" .@@########+.  .+@#$$$###$$%%$$$%$##$$#$##$#@+.  .+@###$$##@@. ",
" .@#####$$###+.  .+@#$#$#####$##$$$##$#$##$#@+.  .+@$##$$#$$#@. ",
" .@####$$$$$##+.  .+@#$$$$#$$$$$##$$##$$##$@+.  .+#$$$$##$$##@. ",
" .####$$$$##$$#+.  .+@###$$$$#$##$$####$$#@+.  .+#$##$$$#$####. ",
" .###$$$###$##$#+.  .+@###$####$$##$$####@+.  .+#$##$$#$$#$###. ",
" .##$$##$#$##$$$#+.  .+@###$#$$##$$#$$##@+.  .+#$#%$$$$###$###. ",
" .###$$##$$$$$##$#+.  .+@###$$####$$###@+.  .+#$$$%%%$$$#$####. ",
" .###$$$$$%$$$$##$#+.  .+@############@+.  .+#$$%$$%$%#$$####@. ",
" .####$#$%$%$%%$$$$#+.  .+@#####$$###@+.  .+@$%%%%$$%%$######@. ",
" .@###$#$%%$%$$%%$$$#+.  .+@##$$#$$#@+.  .+@$%$$%$%%%$###$##@@. ",
" .@####$%%$%%%$$%%%$$#+.  .+@##$$##@+.  .+@#%%$%%$$%$$#$$$##@+. ",
" .@@###$$$$%$%%%%%$$%$#+.  .+@####@+.  .+@#$$%%$$%$$%$$#$##@@+. ",
" .+@###$#$%%$$%%$$%%$$$#+.  .+@##@+.  .+@##$##$%$$%%$#$$###@++. ",
"  .+@###$$%$%%$$%%%$$####+.  .+@@+.  .+@##$##$%%%%$$$$####@@+.  ",
"   .+@###$$%%%%$$%$$$$####+.  .++.  .+@###$$%%%%$$$$#####@@+.   ",
" .  .+@##$#$%%%%%$$%%$$$###+.      .+@###$%%$%%$$#$#####@@+.  . ",
" ..  .+@##$$$$%%$%%%$$#$$$##+.    .+@##$$$$%%$%%%$#####@@+.  .. ",
" ...  .+@##$#$##%%%$$#$$#$$##+    +@##$$$#$$#$$$$#####@@+.  ... ",
" .+..  .+@##$##$%$$$$#$#$##$#+.   +##$$####$##$######@@+.  ..+. ",
" .++..  .+@##$$#$$#$$$#$$####+.   +#$##$#$$#$#$#####@@+.  ..++. ",
" .+++..  .+@###$$####$##$$###+.   +#$$##$$##$$#####@@+.  ..+++. ",
" .++++..  .+@#######$########+.   +##$$$##$##$####@@+.  ..++++. ",
" .+++++..  .+@##############@+.   +@############@@@+.  ..+++++. ",
" ..+++++..  .++@############@+.   +@##########@@++..  ..+++++.. ",
" ...+++++..  .+++@##@@@@#@#@++.   ++@#######@@++...  ..+++++... ",
" ...........  .................   ................  ........... ",
"                                                                "};
