/* XPM */
static char * SPUCE_DOOR_xpm[] = {
"64 128 12 1",
" 	c #997140",
".	c #805E36",
"+	c #664D28",
"@	c #5A4424",
"#	c #553A1F",
"$	c #785836",
"%	c #6B5332",
"&	c #4D3317",
"*	c #686868",
"=	c #535353",
"-	c #3F3F3F",
";	c #353535",
"      ..   .++   .     .+@         .+@  .     . +@       .  . .#",
" .$....$....+@...$......@#.%........+#.....$..$.@#............@&",
" $$.$.$$..$.+#..$$$%.$$%@#$%$%$%$%$%@#..$.$$$.$$@#..$..$.$.$..#&",
" $%$$..$$.$$@#...$%%$$%%+#$%%%$%$%%+@#.$$.%$..$%@#.$$.$$.$$%$.&&",
" .%$$...$.$%+#.$.$%%%$%$+#.$%%$%%$%+@#.$%.%$.$$%@@.$.$.$..$+%.#&",
" .%%$$.$$.$%+#.$.%$.%%$$@#.$%$%+%$+%@#.$%$%$.$%%@#.$.$.%$.$+%$@&",
"..$%$%$$..%$@#..$%..%$$.+#..$%%+%%+$+#.$%%..$$%$+#.$..$%..$++$@&",
".$%$$$%$.$%$@#..$$.$%$..+#..$%.+%++$@#..$%%.$$%$+#.$..%%.$.%+%@#",
".$%$.$%%$$%.@#...$.$.$.$+#..$.$%+++$@@..$$%..$%$@#.$$.%$$$.$+%@&",
"..$$.$.%$%$.+#.....%$..%@#..$.$%%++%@@$.$%%$.%%$@@$.$%%$%$..++@&",
" .$%.$.%%+.$@@.$.%$%$.$%@#....$%+%+%+@$.$%$..%$$+@$.$$%%%%$.++##",
" .%$..$$%+%%+@$$.%$$..%$@#$..$$++$+%+#.%$%$.$%$$+#$..$%%%+%$%+@#",
" $%$$.$$+%%+@#$.$%%$%.%$+#%.$$%+%$+%+#.$%$.$%$$$+#.$.%$%$++%++@@",
" .%$$.$%+$$++@$.%$%$%$%%@#%.$$%+$$+%@#.$%$..%%$$@#$.%%$.$%++%+@@",
" .%%.$$++%$%+@..%$$%%$$%@#$%.$+%$%%+@@$$%%$.$%$%##..$%%$.$++%%@#",
" $$%.$%+%%$$+@.$$$%%$$$%@#$$.%+%$%$%+#$$$%$.$%%$@#%$%%%%$%%+%+@#",
"***===*****=-;==******==-;-=******==;-==******=-;-==*****+%%++##",
"*==-====**=-;-=-==**==--;-====**==;--;-=-=**====-;-===**=-+%+%#&",
"*-=---====-;;;--------;;;;--;;-----;;;;---------;;-------;++%%#&",
"*=--;;--===-;;;;;;;;;;;;;;;;;;;;;;;;;;;;;;;;;;;;;;;;;;;;;@++%%#&",
"*=-;+@;----;@#@@@@@+@+++##@+@@@@@@@+@@+++@+@@@+@##@@@@@@@+++%+@&",
"=--;++@;;;;+@#++@@++++%%##+%@+@@+@++@#+%@@++@+++@#+@@@+@++++++#&",
"=-;-%++%+++%@@+%@++%+%$%@#%%+++@%++%@#%%+@%++%+++#+@+@+++%++++@&",
"-;;;%+%$%++%@#%%+%+%$%$$@#%%+%++%%+%@#%$++%%+%%+@#%++++%+%++++@&",
"..$$%%%.$+%$##$%+$%%.$%$+@$%%%$+%$%%@#%$+%$%++%+@@%%+%+%%+%+++@#",
"..$%$%$..%%$##$%%$%$.$%%+#.$%$$%$$$%##$$%%.$%+%++@%%+%%$%%%+++@#",
" .$%$%.%.%$$@#$$%$$$..$%@#.$.$.%$$.$##$$+%$.$%+%+@$%%$%$$%%%++##",
" .$%%$$%%$$$@#$$%$$$$.$$@@$..$.$%$.$##$%+$..$%+%@@$$%$%%$%$%+%##",
" ..$%$$$%%$$+#$.%%$$.$.$@@$.$%.$%..$##.%%$.$$%++@#.$%$$%%$$%+%##",
" $..$.$$%+%$@#$.%%$..%.$+@..$%$.%.$$@#.%$%.$$$%+@#.$%$$$%$$++%##",
" $$.$.%$.+%%@#%$.%$.$%$$+@.$%$$.%%.%@#.%$%$.%$%+##.$%$%$%$%+%+@#",
" $$..$%$.%+%+#%$.%$$%%%$+@.$%%..$%$%@#..%$$.%$%+##$.$%%$.$%+%%@#",
" .$$.%%.$$+%+#$$.$$$%%+%+@.$$%$.$%%++#$.%%$$%%%+@#$.$%$$.%+%%%@#",
" .$$.%$.$$+++#$..$$$$%+%+#.$$%$..$%++#$.$%$$$%++@#$..%$.$%+%$%##",
" .$$$%..$$%++#$.$%$$$$+++#$.$$%$.$%%+#$.$%$%$%+%+#$$.$$.$%%$$%#&",
" .$%$$..$.%+@#$$$%$%$$++@#$..$%$.%+%@#%$.%%%$%+%+#$$.$..%%%$$$@&",
" $$$%$$.$.%+##.%$$%%$%%+@@$.$$%$%+%$@@%$.%$%%+%%@#$.$$.$%%$$%$@#",
" $$$%%$..$%+##.%%$%%$%+%@@$.$+%%%+$$@@$$.+$$%+%%##$.$..$%%%$%$@@",
" ..$%+$$.%%+##.$%$%+%%+%@@$$$+%%++$%@@$..+%$++%%@#$.$.$%$%%%.$@#",
" $.$$+%$.%++@#..%$$+%+%%@@.$$+%%+%$%+@%.$++%+%$%@#$..$$%$$%$..@&",
".$.$$%+%$%+%@#..$$$%++%%@@.$$%+%+%%$+#%.$$+%+%$%+#$$.$$%.$%$$.##",
"..$.$$+%$$%$@#..%$%%+%%$+@$.%%++%$%$@#%%$$%++%$%@#.$.$$$.$%$$.##",
"..$.%$++%$%$+#..%.%%++%$+@$.$%+%$$%$+#$%.$$+%$$%@#.$$.$..$%%$$#&",
"..$$%$%+%%%%+#..$.%%%+%$+@$$.$+%$$%$##.%.$$+%$%%@#$.$.$.$.$+$$@#",
" .$%%.%%+%$%+@.$..%$%%$%+#$$.%++$$$$##.$..%+%$+%+@$.%..$$.$++$@&",
" .$%$.$%+%.$+@$$.%$$%$$%@#$.$%%+$$$$@#$..$%+$$+%+@..%$.$$$.%+$#&",
" .%$.$$%+$.$@@$.%%$%$%$$@#..$%%+%$$$+#%.$%+%$%++@@.$%$..$$.$%+@&",
" .%$.$%%+$..@#$$%$$%$%%$+#..%$%+%%$$+#%.$%%%$%++@#.$%$..$..$++#&",
" .%%$.%$+%$.@#.$%$%%$$+%+@.$%$$%+%$$+@$.$%$%$$%+@@$.%%$.$.$%+%@#",
" .%%..$$++..+#.$$$%$$$+++@.%%.$$+%%$@@$.$$$%%$%+@@$.$%$..$$+%%@#",
" .$%.$.$%+$.+#$.$%%$%$%++@$%$$.%+%$$@@...$%$%$+%@@.$$+$.$$++%%@#",
" .$%.%..$%%$+@$.$%%$%$%+@@$%$..%++$$@#..$$%.%$+$@#.$%+%.$%+%+%##",
" .$.$%%.$%+.+@$.$+%$$%%+@#%$$.$++%$%+#.%$$%.$%+$@#$$+%%$.+%$+%#&",
" $..%+%.$%+%@@$.%+%%$%%+@#$$.$%+%$$%+#.%$%$..++%+#$++%$$.+%$++@&",
" $.$$+%.$$++@@.$$%+%$%$%+#$..$+%$%$%+#.%%+$$.%+%+@%+%%$.$+$$%+#&",
" $.$%+$.$$%+@#.%$$+%%%$%+#$.$%+%$%%$+@.$%+$$.%+++@.+%$$.%+$$$%#&",
"..$$+%$$.$%%+@$%$$++%$$%@#$.$%%$.$%+@@$$+%$.$$%++#.%+%$$+%$%$%#&",
"..$%+$%$.%$%+#$$%$%+%$$$@#.$$%$$.$++@@$$+.$.$$%+@#.$+%$%+%%%$$@&",
".$$++$%..%%$@#$$%$%%+$%$@#.$$%$$$.%++#$%+$..$%%+@#.$++%%++%%$$@&",
"..$+%$%.$$%$@@$%%%%%+%%$@#.$$$$$.$%+@@$+$$..$$%+@#$%%+%+++%+%$@&",
"***===*****=-;==******==-;-=******==;-==******=-;-==*****+++%%@#",
"*==-====**=-;-=-==**==--;-====**==;--;-=-=**====-;-===**=-+%%%##",
"*-=---====-;;;--------;;;;--;;-----;;;;---------;;-------;+%%%#&",
"*=--;;--===-;;;;;;;;;;;;;;;;;;;;;;;;;;;;;;;;;;;;;;;;;;;;;@+%%%#&",
"=-;@@;----;##++@@++@@@+##++@@@+@@++##@@@@@@@@######@@+++%%%%%## ",
"--;@+@;;;;@##+%+@+%@@++@#%+@@++@+%+@#@+@@@@###****###@@++%%%%## ",
"-;-++@@+@@@#@%%%+%.+@+%+@$%+@%++%%++#++@+@##********##@+%$+%%@# ",
";;;%+++@@+@@#%$%+..$+$%+@$%+@%+%%%%+#++@+##****@#****#+%%$+%%@# ",
"$..%$%++%%@##%$$%.$%+$$@#$%++%%%%$%##%++@##**+@##+@**##$%$$+%@# ",
"$$.%$$%%%+%@#$%$%.$+$%$@#%$%+%%$%$%##+%+@#***++##++***@+$.$+%@# ",
"$$$%%$$.%+%+#.$$.%$%$%%##%$%+$%.$$%@#%%+@@**+++@#+%@**@@$..++## ",
".$$%+$$.$%%+#..$.%%$%+%@#$$%%$$.$%.+#%$+@@**@+%@#%%+**@@$$.$+@# ",
".$.%+%$$.%$+#$.$.%+%%+$##.$$%%.$%.$+@%$%+@***+%@#%$***@@$%.%%@& ",
".$.$+%$$$%$@@$..$%+%+%$##..$%$.%%.$+@.$%+@@**%+#@%$**@@+$%$.%@& ",
"$$.$%+%$.$%@@$.$$$%++$%##$.$$$.%..$+@.%++@@****#@****@@.$%$.%#& ",
"$..$%++$..%+@..$%$%+%$+##$.$$..$.%$+@.%+++@@********@+@.$%%.$@& ",
"$.$.$%+%$.$+@.$%%.$++%+@#.$%$...$+%@@.%+%+@@@@****@@@++..%+..&& ",
"..%.$%+$%$.+@.$%$.$%+%++#.$%$$.$$++@@%%+%+@+@@####@@@%+%.$+%.#& ",
".%+$$$%$%$.@@..$%.$$++$+#.$+%$.$$%+@@%+%$+++@@@#@+@@+%+%.$++%@# ",
"..+$.$%.+%$@@$.$%$.$+%$+#..++$..$%+@@$+%$%++@@@+@+@++$%+%%%+%## ",
"..+%.$$.%+%@#$..%$.$%$.+@$.%+%$.$$%+@$%$%%++@+@+@++%+$$++%%%$@# ",
"$.%%$.$$.+%@#$.$.%$%%$.@@$.%+%$.%$%+@$$$%++@++@+#%+%%%$%+%$%$@# ",
"$.%+%.$.$++@#$$.$+%%$..@@$$$%%$$%.$+@$.$%+%++%+##$%%$%.%+%%$%@# ",
"$..++.$.$%+@#.$.$+%+$..+@$$.%$$$%.$@@.$$%+%++%%##$%$%$.$%+$%%@# ",
"$$.%+$.$%$++@..$%+%+%$.+#.$.$%$%+$.@@.$%+%%+%+%@#$%$%$..%+$%%#& ",
"$.$%+..$+%$+@.$$%%++%$.+#...$%$$+%$@@.$$%$+%%++@#.$$%$$.$%$%%&& ",
"..$$%.$%+$$+@$.$%$+%+%$@#..+$%%$++%@@$.$.$%%$%+@#.$.$%$$%%$+%#& ",
".$.$%.%+%$.@@$.$.$+%%$$##.$+$%%$$+%+@$.$.$%%$%+@#.$.$%$%%+%+%## ",
"$%.$%%++$$.+#$..$$%+%$.@#.$++%$%$+%+#$..$$%$$%$@@$.$$%$%%+%+%&# ",
".%.$$%+%$..+#$$.$.%$%$.@#$.%+%$%$+%+#$..$%%$$%$+@$.$$%$$++%%+#& ",
".+$.$%+$%.$+#.$$.%%.%.$+#$.%+%$%$%+@#.$.$%$$+%$+@$.$%+%$+%$%+&& ",
".+%.$.%$%$.@#.$%.%$.$..+#%.%+$%%$%+@@..$$$%$%+%+@..$%++$+%.++#& ",
"$++..$$%$%.#@..%$%$..$.+@%$.%$%+%%$#@.$%$$%%%+%@#.$%%++%+$.++## ",
"$%+$.$$$.%.##..$%%$.$$$+@%%.$%%+%$$#@.$%$$%+%+%@#.$%%$++$.$++@# ",
"$%%+$.$.%%$@#$.%%$.$$%$+@$%$.%%+%$$#@.$%%$$+%++@#.%$%$+%$.+%+@# ",
"$%+%$.%.%$%@#%$%+$..$%%@@$.%.$%+%$%##.%+%$$%+%+@@$%$$%+%$.+%+@# ",
"$.+$%$%$%%$+#%$+%..$%$%+@$.%$%++%$%##$$%+$%$%%++@$%$.$++%.+%$@# ",
"..%$%$$%%%$+#%%+%%.$%$%+#..%$%+%+$%@#$$%+%%$%%++@%%$.$%++$%%$@# ",
".$%.$%$%+%$@#%+%%%$%+$$+#..$$%+$%%$@#$%%++%$%%+@#%$..%%+%$%$%## ",
".%$..+$%+%.##$++%$%%+%$+#.%$$%+$%+$+#$+%%+%%$%+##$$.$%%+%$$%%## ",
"$%$$.+%++$.@#$%+%$%+%$$+#.$%$++%$+%+@%+%%+%%$%%#@$$.$%++%%$%%@# ",
"$%%$$+%+%$.##$$%+$%++%$@@.$%$+%%%+%+@%+%+++%%+%#@%$%$++%$%$%%## ",
"$+%$%%++%.$##.$%+%%++%++@$$%%+%++%%+@%%+%++%++%@#$%%%+%$$$%%+@# ",
".++%%++%%$$##..$++%%+++@#$$$%%++++%@@%%++++++%+##$%+++%$$+$%+@# ",
"**===*****=-;==******==-;-=******==;-==******=-;-==*****+++++@& ",
"==-====**=-;-=-==**==--;-====**==;--;-=-=**====-;-===**=-+%+%#& ",
"-=---====-;;;--------;;;;--;;-----;;;;---------;;-------;@%+%#& ",
"=--;;--===-;;;;;;;;;;;;;;;;;;;;;;;;;;;;;;;;;;;;;;;;;;;;;@@+%%&& ",
"=-;@@;----;##%+@@++@@+@##++@@@@++@@##@+@@@@@+@@##+@@@@@@@++%%&& ",
"--;@+@;;;;@##+%+@+++@@+##%++@@++@+@##@++@@@++@+##++@@+@@++++%#& ",
"-;-+%++%+@+@#+%++@++@++@#%%+@++%+%+##+%+@++%+++@#+%++%+@+%%++@# ",
";;;+%%+%%++@#%%%+@%+@%+#@$%+@++%+%%##$%%++%%++%@#%%+%$%++$%++@# ",
"..$+%%%.$+%@@%$%++$%+$%@@$%@+%+%%%$#@.$%+%$%%+%+#%$%%$$+%$+%+@# ",
"..$$%.%.$%+@@$$%%+$$+.%+@$$@+%%$%$$##.%%$%$%%+%+#%$%%$$%%$+%$@# ",
"$..%$.%.%%++@.$.%+$$%.$+#%$+%+%$$%$+#.$%$%+$%%$+#%.$%$%$$%$$%## ",
"$$.%$.%$%%%+@.$.%$$%$.$@#%%+%+%$%%$+@$$%$+%$%$$+@%.%$$%.%%$$%@# ",
".$.%%..$$%$+@..$$%.%$$.##%+%%$+%+%%+#.$$%+$$$%$+@$.%%$.$%+%$%@& ",
".$.+%$.$$%$@@.$$$%.$$$.#@$+%%$$%+$%@#.$$.%$%$%%@@$%$%..$%++%$#& ",
".$%+$.$.$$%@@..$%%%.$$.#@.+$%$.+%$%@#$.%.$.%$$%@#.%$%.$$$%+%$#& ",
".$+%$%$.$%+@@$.$$%+.$..#@.%$%$.++$%@#$.$$..%$$%+@.$$%..$$%%+%&& ",
"$$+.$%$$%++@#$.%$+%..%.@#.$.$..%+$$@@..$..%%$%%+@.$.$$.$%$%+%&& ",
"$%%.%%$$%+%##.$%$+%%.%$+#.$.$..%+%$+@$..$.%$$%$+@..$$$.$%$%%+#& ",
"$%$.%$$%+%$#@.$+%+$%$%$+@..$$.$$%+%+@%..%.$%$$%+#..%$.$$%$%$+@# ",
".$%$.%$%+%$#@.%++%$$%%%@#$.$.$%$%+$+@%.$%.$%%$%+#.$$%.$%%$%$%@# ",
".%%$$%%++%%@#.%++%$$%+%@#$.%.$%$%%$@#$.%%$%%%$%@#.$$%$$%+%$$$## ",
"$+%%$$%++%%##$%+%%$%%+%##$.%%$$%$%%@#%$%%%%%$%%@#$$%%%%++%%$%@# ",
"$+%%+%++%%+##%++%+%%+++##+%+%%+%%++##+%%++%%%%+@#+%%+++%+%+%+#& ",
".++++++++++##++++++++++##++++++++++##++++++++++##++++++++++++&& "};
